{"glyphs":{"0":{"ha":311,"x_min":14,"x_max":297,"o":"m 163 0 q 80 49 113 0 q 31 174 47 97 q 14 333 14 250 q 31 492 14 415 q 80 617 47 568 q 163 665 113 665 q 237 617 207 665 q 282 492 267 568 q 297 333 297 415 q 282 174 297 250 q 237 49 267 97 q 163 0 207 0 m 158 32 q 200 124 186 32 q 214 325 214 215 q 200 526 214 435 q 158 618 186 618 q 119 526 132 618 q 107 325 107 435 q 119 124 107 215 q 158 32 132 32 z "},"1":{"ha":197,"x_min":14,"x_max":182,"o":"m 107 0 q 76 25 81 0 q 64 188 71 74 q 57 414 57 303 q 67 586 57 519 q 38 542 49 565 q 29 535 35 535 q 19 542 24 535 q 14 560 14 549 q 57 636 14 596 q 140 669 89 667 q 169 661 157 669 q 182 640 182 653 l 182 635 q 140 111 143 474 l 139 25 q 128 6 138 13 q 107 0 119 0 z "},"2":{"ha":256,"x_min":14,"x_max":242,"o":"m 213 0 l 35 0 q 19 6 24 0 q 14 21 14 13 q 19 35 14 28 q 35 42 24 42 q 97 117 68 42 q 144 295 126 192 q 163 485 163 399 q 119 618 163 618 q 72 525 89 618 q 63 515 69 515 q 46 564 46 515 q 65 635 46 606 q 117 665 83 665 q 213 600 183 665 q 242 444 242 535 q 203 213 242 331 q 101 42 165 96 l 213 42 q 231 22 231 42 q 226 7 231 14 q 213 0 221 0 z "},"3":{"ha":251,"x_min":14,"x_max":236,"o":"m 97 0 q 35 29 56 0 q 14 103 14 58 q 29 149 14 149 q 39 139 36 149 q 59 72 46 97 q 100 47 72 47 q 149 109 132 47 q 167 244 167 171 q 150 370 167 314 q 97 426 133 426 q 82 440 82 426 q 94 451 82 451 q 132 483 118 451 q 146 550 146 515 q 137 598 146 578 q 108 618 128 618 q 61 525 78 618 q 51 515 58 515 q 35 564 35 515 q 53 636 35 607 q 104 665 71 665 q 189 626 158 665 q 219 539 219 586 q 203 478 219 507 q 153 436 186 450 q 215 347 193 407 q 236 218 236 286 q 222 113 236 163 q 176 31 207 63 q 97 0 144 0 z "},"4":{"ha":301,"x_min":14,"x_max":288,"o":"m 213 0 q 181 25 185 0 q 167 239 174 89 l 35 239 q 20 244 26 239 q 14 258 14 250 q 106 460 14 263 l 182 622 q 246 669 204 669 q 275 661 263 669 q 288 640 288 653 l 286 635 q 246 131 250 482 l 243 25 q 233 6 242 13 q 213 0 224 0 m 165 281 q 163 411 163 349 q 164 485 163 450 l 68 281 l 165 281 z "},"5":{"ha":251,"x_min":14,"x_max":236,"o":"m 97 0 q 35 29 56 0 q 14 103 14 58 q 29 149 14 149 q 39 139 36 149 q 59 72 46 97 q 100 47 72 47 q 149 109 132 47 q 167 244 167 171 q 150 370 167 314 q 97 426 133 426 q 77 411 83 426 q 71 380 71 396 q 51 364 71 364 q 36 368 43 364 q 29 381 29 372 l 29 644 q 40 663 29 657 q 42 663 42 663 q 43 664 42 664 q 45 664 44 664 q 46 665 46 664 l 197 665 q 214 646 214 665 q 210 631 214 638 q 197 624 206 624 l 71 624 l 71 439 q 101 451 83 451 q 175 417 144 451 q 221 330 206 383 q 236 218 236 276 q 222 114 236 164 q 176 32 207 64 q 97 0 144 0 z "},"6":{"ha":311,"x_min":14,"x_max":297,"o":"m 157 0 q 76 44 108 0 q 29 160 44 89 q 14 310 14 231 q 32 479 14 397 q 85 614 50 561 q 171 667 119 667 q 233 638 213 667 q 254 564 254 608 q 239 518 254 518 q 229 528 232 518 q 209 604 222 571 q 168 638 196 638 q 124 572 143 638 q 96 414 104 507 q 161 451 115 451 q 235 417 204 451 q 281 329 265 383 q 297 218 297 275 q 282 113 297 163 q 235 31 267 63 q 157 0 204 0 m 161 25 q 210 91 193 25 q 226 233 226 157 q 210 367 226 307 q 158 426 194 426 q 109 387 128 426 q 90 314 90 347 l 90 276 q 107 101 90 176 q 161 25 124 25 z "},"7":{"ha":307,"x_min":14,"x_max":292,"o":"m 47 0 q 24 8 35 0 q 14 29 14 15 q 50 207 15 60 q 113 449 78 328 q 175 619 147 569 l 178 624 l 63 624 q 48 630 53 624 q 43 644 43 636 q 48 659 43 653 q 63 665 53 665 l 247 665 q 279 653 267 663 q 292 631 292 643 q 289 619 292 625 q 101 106 210 474 l 74 17 q 47 0 65 0 z "},"8":{"ha":311,"x_min":14,"x_max":297,"o":"m 163 0 q 80 31 113 0 q 31 110 47 61 q 14 211 14 158 q 33 320 14 268 q 93 400 53 372 q 52 453 65 421 q 39 522 39 486 q 69 620 39 575 q 163 665 100 665 q 248 621 219 665 q 276 522 276 576 q 264 453 276 486 q 225 400 251 421 q 279 320 261 372 q 297 210 297 268 q 282 110 297 158 q 237 31 267 61 q 163 0 207 0 m 158 421 q 194 453 182 421 q 207 522 207 485 q 194 592 207 560 q 158 624 182 624 q 123 592 135 624 q 111 522 111 560 q 123 453 111 485 q 158 421 135 421 m 158 32 q 209 86 192 32 q 226 206 226 140 q 209 325 226 271 q 158 379 192 379 q 104 325 122 379 q 86 206 86 271 q 104 86 86 140 q 158 32 122 32 z "},"9":{"ha":311,"x_min":14,"x_max":297,"o":"m 140 0 q 77 30 99 0 q 56 103 56 60 q 72 149 56 149 q 82 139 79 149 q 102 63 89 96 q 143 29 115 29 q 187 94 168 29 q 215 253 206 160 q 150 215 196 215 q 76 249 106 215 q 30 338 46 283 q 14 449 14 392 q 28 554 14 504 q 74 635 43 604 q 153 667 106 667 q 233 622 201 667 q 281 506 265 578 q 297 356 297 435 q 279 188 297 269 q 226 53 261 106 q 140 0 192 0 m 153 240 q 202 280 183 240 q 221 353 221 319 l 221 390 q 204 566 221 490 q 150 642 188 642 q 101 576 118 642 q 83 432 83 510 q 100 299 83 358 q 153 240 117 240 z "},"\u0000":{"ha":0,"x_min":0,"x_max":0,"o":""},"\n":{"ha":0,"x_min":0,"x_max":0,"o":""}," ":{"ha":210,"x_min":0,"x_max":0,"o":""},"!":{"ha":176,"x_min":28,"x_max":153,"o":"m 78 74 q 46 99 50 74 q 34 242 40 146 q 28 432 28 338 q 42 606 28 540 q 72 655 51 640 q 111 669 92 669 q 140 661 128 669 q 153 640 153 653 l 151 635 q 111 190 115 483 l 108 99 q 98 80 107 86 q 78 74 89 74 m 78 0 q 56 9 65 0 q 47 31 47 18 q 56 52 47 43 q 78 61 65 61 q 99 52 90 61 q 108 31 108 43 q 99 9 108 18 q 78 0 90 0 z "},"\"":{"ha":168,"x_min":29,"x_max":153,"o":"m 68 582 q 58 586 63 582 q 54 599 54 590 q 48 642 54 614 q 32 693 42 669 q 29 708 29 701 q 36 727 29 721 q 53 733 43 733 q 89 664 89 733 q 83 599 89 628 q 68 582 81 582 m 132 582 q 118 598 118 582 q 112 642 118 614 q 97 693 106 669 q 93 710 93 703 q 101 727 93 721 q 117 733 108 733 q 153 663 153 733 q 149 599 153 628 q 132 582 146 582 z "},"#":{"ha":496,"x_min":21,"x_max":475,"o":"m 239 0 q 215 8 226 0 q 204 28 204 17 q 225 101 204 35 l 249 178 l 156 178 q 89 15 126 104 q 64 0 79 0 q 40 8 51 0 q 28 29 28 17 q 49 101 28 35 l 72 178 l 42 178 q 26 184 32 178 q 21 199 21 190 q 26 213 21 207 q 42 219 32 219 l 86 219 q 143 421 115 315 l 115 421 q 100 427 106 421 q 94 442 94 433 q 100 456 94 450 q 115 463 106 463 l 154 463 q 185 643 179 565 q 195 660 186 654 q 217 665 204 665 q 259 647 238 665 q 281 588 281 629 q 254 463 279 546 l 331 463 q 361 643 356 565 q 372 660 363 654 q 393 665 381 665 q 435 647 414 665 q 457 588 457 629 q 431 463 456 546 l 457 463 q 475 443 475 463 q 470 428 475 435 q 457 421 465 421 l 418 421 q 347 219 386 321 l 383 219 q 401 200 401 219 q 397 185 401 192 q 383 178 392 178 l 332 178 q 265 15 286 64 q 239 0 254 0 m 263 219 q 319 421 292 315 l 242 421 q 171 219 210 321 l 263 219 z "},"$":{"ha":342,"x_min":28,"x_max":283,"o":"m 178 -76 q 163 -72 169 -76 q 156 -58 156 -67 l 156 3 q 107 75 107 17 q 116 122 107 100 q 139 157 125 144 q 150 161 144 161 l 156 160 l 156 182 l 132 211 q 69 294 99 247 q 28 450 28 363 q 64 588 28 532 q 156 660 100 643 l 156 707 q 162 723 156 718 q 176 728 168 728 q 191 723 185 728 q 197 707 197 718 l 197 664 q 282 536 282 657 q 268 438 282 485 q 225 363 249 363 q 211 375 211 363 q 214 385 211 379 q 242 455 232 413 q 251 536 251 497 q 243 594 251 571 q 217 618 235 618 q 197 614 207 618 l 197 264 q 260 189 242 215 q 283 101 283 153 q 265 40 283 72 q 197 0 246 7 l 197 -58 q 178 -76 197 -76 m 156 40 l 156 142 q 139 89 139 115 q 156 40 139 60 m 156 314 l 156 578 q 117 435 117 514 q 140 336 117 381 l 156 314 m 197 40 q 203 68 203 51 q 199 106 203 88 l 197 108 l 197 40 z "},"%":{"ha":618,"x_min":56,"x_max":565,"o":"m 181 0 q 165 6 172 0 q 157 21 157 13 q 233 204 157 24 l 419 651 q 439 664 428 664 q 453 658 446 664 q 460 644 460 653 l 458 636 q 414 531 453 622 q 326 323 375 440 q 240 114 278 206 q 196 11 201 22 q 181 0 190 0 m 179 332 q 86 384 117 332 q 56 499 56 436 q 86 613 56 561 q 179 665 117 665 q 266 613 238 665 q 294 499 294 561 q 266 384 294 436 q 179 332 238 332 m 176 374 q 213 413 200 374 q 225 499 225 451 q 213 585 225 546 q 176 624 200 624 q 140 585 151 624 q 128 499 128 546 q 140 413 128 451 q 176 374 151 374 m 450 0 q 358 52 389 0 q 328 167 328 104 q 358 280 328 228 q 450 332 389 332 q 537 280 508 332 q 565 167 565 228 q 537 52 565 104 q 450 0 508 0 m 447 42 q 483 81 471 42 q 496 167 496 119 q 483 251 496 213 q 447 290 471 290 q 412 251 424 290 q 400 167 400 213 q 412 81 400 119 q 447 42 424 42 z "},"&":{"ha":432,"x_min":51,"x_max":401,"o":"m 190 0 q 112 31 143 0 q 66 113 81 63 q 51 218 51 163 q 73 346 51 285 q 136 436 94 407 q 85 478 101 450 q 69 539 69 507 q 100 626 69 586 q 183 665 131 665 q 235 636 217 665 q 253 564 253 607 q 238 515 253 515 q 226 525 229 515 q 179 618 213 618 q 151 598 160 618 q 143 551 143 578 q 156 484 143 517 q 193 451 169 451 q 206 440 206 451 q 190 426 206 426 q 138 370 154 426 q 121 246 121 314 q 138 110 121 172 q 188 47 156 47 q 232 95 219 47 q 244 199 244 143 q 228 322 244 282 l 226 326 q 207 322 219 322 q 194 325 199 322 q 189 331 189 328 q 192 332 189 332 q 222 347 208 332 q 247 385 235 363 q 287 438 264 413 q 346 463 310 463 q 387 448 372 463 q 401 425 401 433 q 396 418 401 418 l 388 419 q 368 424 376 424 q 333 411 349 424 q 301 381 318 399 q 247 335 278 356 q 271 267 261 321 q 279 175 279 224 q 260 55 279 110 q 190 0 240 0 z "},"'":{"ha":104,"x_min":29,"x_max":89,"o":"m 68 582 q 58 586 63 582 q 54 599 54 590 q 48 642 54 614 q 32 693 42 669 q 29 708 29 701 q 36 727 29 721 q 53 733 43 733 q 89 664 89 733 q 83 599 89 628 q 68 582 81 582 z "},"(":{"ha":308,"x_min":78,"x_max":283,"o":"m 240 -40 q 150 13 186 -40 q 96 149 114 65 q 78 325 78 232 q 98 516 78 424 q 157 667 118 608 q 254 726 196 726 q 273 719 264 726 q 282 706 282 711 q 274 700 282 700 q 207 647 233 700 q 167 512 181 594 q 154 339 154 429 q 167 166 154 249 q 207 31 181 83 q 274 -22 233 -22 q 283 -29 283 -22 q 240 -40 283 -40 z "},")":{"ha":307,"x_min":25,"x_max":231,"o":"m 68 -40 q 25 -29 25 -40 q 35 -22 25 -22 q 101 31 75 -22 q 141 166 128 83 q 154 339 154 249 q 141 512 154 429 q 101 647 128 594 q 35 700 75 700 q 26 704 26 700 q 35 719 26 711 q 53 726 43 726 q 151 667 111 726 q 210 516 190 608 q 231 325 231 424 q 213 149 231 232 q 158 13 194 65 q 68 -40 122 -40 z "},"*":{"ha":176,"x_min":19,"x_max":157,"o":"m 88 596 q 75 610 75 596 l 75 632 q 61 617 67 624 q 50 611 56 611 q 41 615 44 611 q 38 625 38 619 q 57 651 38 632 l 35 651 q 19 665 19 651 q 35 678 19 678 l 58 678 q 50 687 54 682 q 42 696 46 692 q 38 706 38 700 q 41 715 38 711 q 50 718 44 718 q 62 712 56 718 q 75 699 68 706 l 75 718 q 89 733 75 733 q 101 718 101 733 l 101 697 q 126 718 119 718 q 136 715 132 718 q 140 706 140 711 q 137 697 140 700 q 129 689 133 693 q 119 678 125 685 l 144 678 q 157 665 157 678 q 144 651 157 651 l 118 651 l 136 633 q 139 625 139 629 q 135 615 139 619 q 126 611 132 611 q 118 614 121 611 q 112 621 115 617 q 101 632 108 625 l 101 610 q 97 599 101 603 q 88 596 93 596 z "},"+":{"ha":203,"x_min":21,"x_max":181,"o":"m 100 263 q 81 281 81 263 l 81 322 l 42 322 q 26 328 32 322 q 21 343 21 335 q 26 358 21 351 q 42 364 32 364 l 81 364 l 81 403 q 87 417 81 413 q 101 422 93 422 q 116 417 110 422 q 122 403 122 413 l 122 364 l 164 364 q 181 344 181 364 q 176 329 181 336 q 164 322 172 322 l 122 322 l 122 281 q 115 267 122 272 q 100 263 108 263 z "},",":{"ha":104,"x_min":29,"x_max":89,"o":"m 68 -76 q 58 -72 63 -76 q 54 -58 54 -67 q 48 -16 54 -43 q 32 35 42 11 q 29 50 29 43 q 36 69 29 63 q 53 75 43 75 q 89 6 89 75 q 68 -76 89 -76 z "},"-":{"ha":203,"x_min":21,"x_max":181,"o":"m 164 322 l 42 322 q 26 328 32 322 q 21 343 21 335 q 26 358 21 351 q 42 364 32 364 l 164 364 q 181 344 181 364 q 176 329 181 336 q 164 322 172 322 z "},".":{"ha":89,"x_min":14,"x_max":75,"o":"m 44 0 q 23 9 32 0 q 14 31 14 18 q 23 52 14 43 q 44 61 32 61 q 66 52 57 61 q 75 31 75 43 q 66 9 75 18 q 44 0 57 0 z "},"/":{"ha":346,"x_min":21,"x_max":324,"o":"m 46 0 q 29 6 38 0 q 21 21 21 13 l 283 651 q 303 664 292 664 q 317 658 310 664 q 324 644 324 653 q 286 550 324 639 l 131 176 q 59 10 64 21 q 46 0 54 0 z "},":":{"ha":89,"x_min":14,"x_max":75,"o":"m 44 0 q 23 9 32 0 q 14 31 14 18 q 23 52 14 43 q 44 61 32 61 q 66 52 57 61 q 75 31 75 43 q 66 9 75 18 q 44 0 57 0 m 44 460 q 23 469 32 460 q 14 490 14 478 q 23 511 14 503 q 44 519 32 519 q 66 511 57 519 q 75 490 75 503 q 66 469 75 478 q 44 460 57 460 z "},";":{"ha":104,"x_min":29,"x_max":90,"o":"m 69 -76 q 59 -72 64 -76 q 54 -58 54 -67 q 49 -16 54 -43 q 33 35 43 11 q 31 51 31 43 q 38 69 31 63 q 54 75 44 75 q 89 15 88 75 q 85 -58 89 -25 q 69 -76 82 -76 m 60 460 q 38 469 47 460 q 29 490 29 478 q 38 511 29 503 q 60 519 47 519 q 81 511 72 519 q 90 490 90 503 q 81 469 90 478 q 60 460 72 460 z "},"<":{"ha":186,"x_min":14,"x_max":161,"o":"m 139 210 q 128 215 133 210 q 19 331 106 238 q 14 346 14 336 q 19 360 14 353 l 128 474 q 140 479 133 479 q 154 472 147 479 q 161 457 161 465 q 157 446 161 451 q 63 344 126 411 q 157 244 114 293 q 161 233 161 239 q 154 217 161 225 q 139 210 147 210 z "},"=":{"ha":203,"x_min":21,"x_max":181,"o":"m 164 381 l 42 381 q 26 387 32 381 q 21 401 21 393 q 26 416 21 410 q 42 422 32 422 l 164 422 q 181 403 181 422 q 176 388 181 394 q 164 381 172 381 m 164 269 l 42 269 q 26 276 32 269 q 21 290 21 282 q 26 305 21 299 q 42 311 32 311 l 164 311 q 181 292 181 311 q 176 276 181 283 q 164 269 172 269 z "},">":{"ha":186,"x_min":25,"x_max":172,"o":"m 47 210 q 32 217 39 210 q 25 233 25 225 q 30 245 25 239 q 50 267 35 251 q 83 301 65 283 l 124 344 l 29 446 q 25 456 25 450 q 32 472 25 464 q 47 479 39 479 q 60 472 54 479 q 83 449 67 465 q 116 414 99 432 q 147 381 133 396 q 166 360 160 367 q 172 346 172 353 q 167 331 172 336 l 60 215 q 47 210 54 210 z "},"?":{"ha":286,"x_min":22,"x_max":256,"o":"m 108 0 q 87 9 96 0 q 78 31 78 18 q 87 52 78 43 q 108 61 96 61 q 130 52 121 61 q 139 31 139 43 q 130 9 139 18 q 108 0 121 0 m 104 82 q 89 96 89 82 q 118 223 89 138 q 167 411 147 308 q 171 460 171 436 q 147 571 171 524 q 96 618 124 618 q 47 525 65 618 q 38 515 44 515 q 22 564 22 515 q 40 636 22 607 q 92 665 58 665 q 209 603 163 665 q 256 456 256 542 q 217 300 256 379 q 167 210 193 250 q 132 148 146 176 q 118 96 118 119 q 104 82 118 82 z "},"@":{"ha":563,"x_min":97,"x_max":531,"o":"m 343 6 q 207 54 261 6 q 125 178 153 103 q 97 338 97 254 q 158 560 97 461 q 340 665 218 660 q 496 525 450 665 q 531 257 531 418 q 525 131 531 181 q 471 71 517 71 q 337 124 382 71 q 292 240 292 176 q 327 344 292 296 q 433 410 363 393 q 343 618 417 618 q 240 576 282 618 q 178 467 199 533 q 158 326 158 400 q 178 187 158 254 q 240 77 199 119 q 343 35 282 35 q 358 21 358 35 q 343 6 358 6 m 443 97 q 438 131 438 110 l 439 238 q 435 378 439 300 q 358 324 383 364 q 332 238 332 285 q 360 149 332 190 q 443 97 388 108 z "},"A":{"ha":283,"x_min":14,"x_max":268,"o":"m 232 0 q 213 10 221 0 q 204 39 204 19 l 204 51 q 190 192 204 101 l 82 192 q 43 7 58 22 q 29 0 36 0 q 14 25 17 0 q 61 368 14 42 l 101 644 q 115 663 104 656 q 143 669 126 669 q 183 655 163 669 q 213 606 203 640 q 250 358 232 529 q 268 86 268 188 q 266 39 268 58 q 253 10 264 19 q 232 0 243 0 m 185 233 q 128 526 161 382 q 89 233 111 394 l 185 233 z "},"B":{"ha":286,"x_min":14,"x_max":272,"o":"m 72 0 l 65 0 q 45 10 56 0 q 32 40 35 21 q 20 198 26 89 q 14 414 14 307 q 28 606 14 538 q 58 656 38 642 q 100 669 79 669 q 199 642 161 669 q 254 569 236 614 q 272 472 272 524 q 236 327 272 397 q 133 229 200 257 q 177 183 163 213 q 192 122 192 154 q 162 38 192 76 q 72 0 132 0 m 97 254 q 190 333 157 268 q 222 471 222 397 q 202 572 222 525 q 139 638 182 618 q 138 635 138 638 q 97 254 104 501 m 93 26 q 137 61 122 35 q 151 118 151 88 q 138 175 151 149 q 96 210 124 201 q 94 76 94 154 q 93 26 94 32 z "},"C":{"ha":267,"x_min":14,"x_max":253,"o":"m 183 0 q 89 49 126 0 q 33 174 51 97 q 14 333 14 250 q 33 492 14 415 q 89 617 51 568 q 183 665 126 665 q 235 636 217 665 q 253 564 253 607 q 238 515 253 515 q 226 525 229 515 q 179 618 213 618 q 125 526 143 618 q 107 325 107 435 q 125 124 107 215 q 179 32 143 32 q 222 100 203 32 q 233 113 226 113 q 242 99 240 113 q 227 33 240 65 q 183 0 214 0 z "},"D":{"ha":282,"x_min":14,"x_max":268,"o":"m 68 0 q 47 10 57 0 q 32 40 36 19 q 20 198 26 89 q 14 414 14 307 q 28 606 14 538 q 58 656 38 642 q 100 669 79 669 q 197 629 160 669 q 251 524 233 589 q 268 385 268 460 q 244 205 268 293 q 175 58 219 117 q 68 0 131 0 m 94 39 q 187 169 154 67 q 219 382 219 271 q 199 535 219 465 q 138 633 179 604 q 93 108 93 450 l 94 39 z "},"E":{"ha":263,"x_min":14,"x_max":249,"o":"m 78 -3 q 33 43 39 -3 q 20 198 26 89 q 14 414 14 307 q 28 606 14 538 q 115 681 42 681 q 232 653 158 681 q 249 631 249 644 q 242 616 249 622 q 226 610 236 610 l 221 610 l 136 625 q 99 233 106 493 l 161 233 q 179 214 179 233 q 174 199 179 206 q 161 192 169 192 l 99 192 l 96 56 l 176 71 l 181 71 q 198 64 192 71 q 204 49 204 57 q 188 28 204 36 l 168 21 q 78 -3 115 -3 z "},"F":{"ha":263,"x_min":14,"x_max":249,"o":"m 64 0 q 32 25 36 0 q 20 186 26 74 q 14 408 14 299 q 28 606 14 538 q 115 681 42 681 q 232 653 158 681 q 249 631 249 644 q 242 616 249 622 q 226 610 236 610 l 221 610 l 136 625 q 100 233 104 492 l 161 233 q 179 214 179 233 q 174 199 179 206 q 161 192 169 192 l 99 192 q 94 25 97 81 q 84 6 93 13 q 64 0 75 0 z "},"G":{"ha":303,"x_min":14,"x_max":289,"o":"m 269 0 q 254 4 261 0 q 247 15 247 8 q 247 35 247 21 q 244 69 246 50 q 183 0 225 0 q 89 49 126 0 q 33 174 51 97 q 14 333 14 250 q 33 492 14 415 q 89 617 51 568 q 183 665 126 665 q 235 636 217 665 q 253 564 253 607 q 238 515 253 515 q 226 525 229 515 q 179 618 213 618 q 125 526 143 618 q 107 325 107 435 q 125 124 107 215 q 179 32 143 32 q 216 78 206 32 q 228 198 226 125 q 231 350 231 271 q 240 371 231 364 q 260 378 249 378 q 280 371 271 378 q 289 350 289 364 l 289 17 q 269 0 289 0 z "},"H":{"ha":296,"x_min":14,"x_max":282,"o":"m 207 0 q 175 25 179 0 q 163 192 169 76 l 99 192 q 94 25 97 81 q 84 6 93 13 q 64 0 75 0 q 32 25 36 0 q 20 186 26 74 q 14 408 14 299 q 28 606 14 538 q 58 655 38 640 q 97 669 78 669 q 126 661 114 669 q 139 640 139 653 l 138 635 q 100 233 104 503 l 161 233 q 157 406 157 322 q 171 606 157 536 q 201 655 181 640 q 240 669 221 669 q 269 661 257 669 q 282 640 282 653 l 281 635 q 240 131 244 482 l 238 25 q 227 6 236 13 q 207 0 218 0 z "},"I":{"ha":153,"x_min":14,"x_max":139,"o":"m 64 0 q 32 25 36 0 q 20 186 26 74 q 14 408 14 299 q 28 606 14 538 q 58 655 38 640 q 97 669 78 669 q 126 661 114 669 q 139 640 139 653 l 138 635 q 97 131 101 482 l 94 25 q 84 6 93 13 q 64 0 75 0 z "},"J":{"ha":238,"x_min":14,"x_max":224,"o":"m 83 0 q 32 29 50 0 q 14 100 14 58 q 29 149 14 149 q 39 139 36 149 q 88 47 57 47 q 128 299 128 47 q 122 543 128 433 l 119 606 q 132 650 119 635 q 160 665 144 665 q 189 650 175 665 q 206 606 203 635 l 208 579 q 224 326 224 433 q 213 170 224 244 q 171 48 201 96 q 83 0 140 0 z "},"K":{"ha":256,"x_min":14,"x_max":242,"o":"m 217 0 q 203 8 208 0 q 117 149 199 15 q 94 25 94 53 q 84 6 93 13 q 64 0 75 0 q 32 25 36 0 q 20 186 26 74 q 14 408 14 299 q 28 606 14 538 q 58 655 38 640 q 97 669 78 669 q 126 661 114 669 q 139 640 139 653 l 138 635 q 100 244 107 511 q 193 651 188 622 q 211 665 199 665 q 227 660 219 665 q 235 646 235 654 l 214 561 l 129 204 q 203 85 172 133 q 238 31 233 38 q 242 21 242 25 q 233 6 242 13 q 217 0 225 0 z "},"L":{"ha":218,"x_min":14,"x_max":204,"o":"m 78 -3 q 33 43 39 -3 q 20 198 26 89 q 14 414 14 307 q 28 606 14 538 q 58 655 38 640 q 97 669 78 669 q 126 661 114 669 q 139 640 139 653 l 138 635 q 97 114 99 471 l 96 56 l 176 71 l 181 71 q 198 64 192 71 q 204 49 204 57 q 188 28 204 36 l 168 21 q 78 -3 115 -3 z "},"M":{"ha":378,"x_min":14,"x_max":363,"o":"m 310 0 q 290 10 299 0 q 282 39 282 19 l 283 117 q 257 543 283 364 l 221 393 q 189 367 214 367 q 156 393 163 367 l 119 543 q 94 93 94 357 l 94 39 q 86 10 94 19 q 67 0 78 0 q 45 10 56 0 q 32 40 35 19 q 20 198 26 89 q 14 414 14 307 q 28 606 14 538 q 58 655 38 640 q 97 669 78 669 q 124 663 113 669 q 138 645 135 656 q 155 572 140 635 q 189 426 169 510 q 222 574 208 513 q 239 646 236 635 q 253 663 242 657 q 279 669 264 669 q 319 655 299 669 q 350 606 339 640 q 363 421 363 540 q 356 201 363 313 q 344 40 350 90 q 331 10 342 21 q 310 0 321 0 z "},"N":{"ha":353,"x_min":14,"x_max":339,"o":"m 267 0 q 245 10 256 0 q 232 40 235 19 l 231 68 l 229 75 q 119 543 197 224 q 94 93 94 357 l 94 39 q 86 10 94 19 q 67 0 78 0 q 45 10 56 0 q 32 40 35 19 q 20 198 26 89 q 14 414 14 307 q 28 606 14 538 q 58 655 38 640 q 97 669 78 669 q 124 663 113 669 q 138 644 135 657 q 165 529 142 631 q 215 307 188 428 l 214 403 q 228 606 214 533 q 258 655 238 640 q 297 669 278 669 q 326 661 314 669 q 339 640 339 653 l 338 635 q 294 92 294 453 l 294 39 q 286 10 294 19 q 267 0 278 0 z "},"O":{"ha":340,"x_min":14,"x_max":326,"o":"m 183 0 q 89 49 126 0 q 33 174 51 97 q 14 333 14 250 q 33 492 14 415 q 89 617 51 568 q 183 665 126 665 q 263 617 231 665 q 310 492 294 568 q 326 333 326 415 q 310 174 326 250 q 263 49 294 97 q 183 0 231 0 m 179 32 q 227 124 211 32 q 243 325 243 215 q 227 526 243 435 q 179 618 211 618 q 125 526 143 618 q 107 325 107 435 q 125 124 107 215 q 179 32 143 32 z "},"P":{"ha":286,"x_min":14,"x_max":272,"o":"m 67 0 q 45 10 56 0 q 32 40 35 19 q 20 198 26 89 q 14 414 14 307 q 28 606 14 538 q 58 656 38 642 q 100 669 79 669 q 199 642 161 669 q 254 569 236 614 q 272 472 272 524 q 226 310 272 386 q 96 219 179 233 l 94 115 l 94 39 q 86 10 94 19 q 67 0 78 0 m 97 254 q 190 333 157 268 q 222 471 222 397 q 202 572 222 525 q 139 638 182 618 q 138 635 138 638 q 97 254 104 501 z "},"Q":{"ha":340,"x_min":14,"x_max":325,"o":"m 301 0 q 289 6 293 0 q 263 50 285 13 q 183 0 232 0 q 89 49 126 0 q 33 174 51 97 q 14 333 14 250 q 33 492 14 415 q 89 617 51 568 q 183 665 126 665 q 263 617 231 665 q 310 492 294 568 q 325 333 325 415 q 285 92 325 199 q 324 28 322 31 q 325 19 325 25 q 317 6 325 11 q 301 0 310 0 m 179 32 q 225 111 208 32 l 204 144 q 191 165 197 154 q 185 185 185 175 q 190 201 185 194 q 201 208 194 208 q 218 196 210 208 q 235 171 226 183 q 243 324 243 244 q 227 526 243 435 q 179 618 211 618 q 125 526 143 618 q 107 325 107 435 q 125 124 107 215 q 179 32 143 32 z "},"R":{"ha":286,"x_min":14,"x_max":272,"o":"m 204 0 q 191 7 196 0 q 160 57 186 14 q 94 163 133 100 l 94 39 q 86 10 94 19 q 67 0 78 0 q 45 10 56 0 q 32 40 35 19 q 20 198 26 89 q 14 414 14 307 q 28 606 14 538 q 58 656 38 642 q 100 669 79 669 q 199 642 161 669 q 254 569 236 614 q 272 472 272 524 q 228 314 272 389 q 106 221 185 239 q 186 91 153 144 q 224 31 219 38 q 228 21 228 25 q 220 6 228 13 q 204 0 213 0 m 97 254 q 190 333 157 268 q 222 471 222 397 q 202 572 222 525 q 139 638 182 618 q 138 635 138 638 q 97 254 104 501 z "},"S":{"ha":283,"x_min":14,"x_max":269,"o":"m 169 0 q 110 24 126 1 q 93 75 93 47 q 102 122 93 100 q 125 157 111 144 q 136 161 131 161 q 146 151 146 161 q 143 143 146 147 q 125 89 125 115 q 133 51 125 68 q 167 31 146 31 q 190 68 190 31 q 118 211 190 136 q 56 296 85 249 q 14 450 14 363 q 63 606 14 546 q 179 665 113 665 q 268 538 268 665 q 254 438 268 486 q 211 363 233 363 q 197 375 197 363 q 200 385 197 379 q 228 456 218 413 q 238 538 238 499 q 229 594 238 571 q 203 618 221 618 q 131 560 160 618 q 103 435 103 501 q 126 336 103 381 q 190 256 157 290 q 246 188 222 222 q 269 101 269 153 q 260 57 269 81 q 229 17 251 33 q 169 0 207 0 z "},"T":{"ha":360,"x_min":14,"x_max":346,"o":"m 167 0 q 136 25 140 0 q 126 173 131 68 q 122 389 122 278 q 135 632 122 542 l 40 632 q 21 639 28 632 q 14 653 14 646 q 20 667 14 661 q 39 674 26 674 l 328 674 q 346 654 346 674 q 341 639 346 646 q 328 632 336 632 l 240 632 q 200 113 203 472 l 199 25 q 188 6 197 13 q 167 0 179 0 z "},"U":{"ha":381,"x_min":14,"x_max":367,"o":"m 292 0 q 261 25 265 0 q 249 188 254 74 q 143 0 225 0 q 14 282 14 0 q 33 553 14 389 l 39 606 q 56 650 42 635 q 85 665 69 665 q 114 650 101 665 q 126 606 126 635 l 124 543 q 118 299 118 433 q 158 47 118 47 q 206 116 188 47 q 233 269 224 185 q 242 400 242 354 q 256 606 242 533 q 285 655 265 640 q 325 669 306 669 q 354 661 342 669 q 367 640 367 653 l 365 635 q 325 131 329 482 l 322 25 q 312 6 321 13 q 292 0 303 0 z "},"V":{"ha":283,"x_min":14,"x_max":268,"o":"m 140 -1 q 101 13 121 -1 q 69 63 81 28 q 33 312 51 140 q 14 583 14 483 q 16 630 14 611 q 28 658 18 649 q 50 668 39 668 q 69 658 61 668 q 78 626 78 649 q 101 416 78 557 q 154 142 125 275 l 164 218 q 228 642 210 560 q 238 663 231 656 q 253 669 246 669 q 268 646 265 669 q 221 300 267 611 l 181 24 q 167 6 178 13 q 140 -1 156 -1 z "},"W":{"ha":376,"x_min":14,"x_max":363,"o":"m 279 0 q 253 7 264 0 q 239 24 242 14 q 222 96 236 35 q 189 243 208 157 l 157 107 q 138 24 140 36 q 124 6 135 13 q 97 0 113 0 q 58 15 78 0 q 28 64 38 29 q 14 256 14 132 q 20 472 14 363 q 32 629 26 581 q 45 660 35 650 q 67 669 56 669 q 86 660 78 669 q 94 631 94 650 l 94 576 q 119 126 94 313 l 156 276 q 189 303 163 303 q 221 276 214 303 l 257 126 q 283 553 283 306 l 282 631 q 290 660 282 650 q 310 669 299 669 q 331 660 321 669 q 344 629 342 650 q 356 468 350 579 q 363 249 363 357 q 350 64 363 129 q 319 15 339 29 q 279 0 299 0 z "},"X":{"ha":281,"x_min":14,"x_max":267,"o":"m 232 -1 q 207 15 217 -1 q 129 206 181 71 q 81 21 83 36 q 58 0 72 0 q 45 6 51 0 q 39 22 39 11 q 103 274 39 28 q 14 585 15 515 q 35 647 14 628 q 78 665 57 665 q 99 659 90 665 q 110 642 108 653 q 147 440 117 557 q 184 584 168 525 q 204 654 200 643 q 219 665 208 665 q 235 660 228 665 q 243 646 243 654 q 168 358 243 638 q 233 143 201 239 q 267 28 267 36 q 256 7 267 15 q 232 -1 244 -1 z "},"Y":{"ha":322,"x_min":14,"x_max":308,"o":"m 168 0 q 115 29 133 0 q 97 100 97 58 q 114 149 97 149 q 124 139 121 149 q 171 47 140 47 q 211 297 211 47 q 131 192 190 192 q 14 422 14 192 q 24 582 14 507 l 25 606 q 43 650 29 635 q 72 665 57 665 q 100 650 88 665 q 113 606 113 635 l 111 557 q 108 429 108 499 q 144 239 108 239 q 183 285 169 239 q 201 395 196 331 q 206 515 206 460 l 203 606 q 215 650 203 635 q 244 665 228 665 q 274 650 260 665 q 290 606 288 635 l 293 569 q 308 325 308 464 q 297 169 308 244 q 255 47 285 94 q 168 0 225 0 z "},"Z":{"ha":282,"x_min":14,"x_max":267,"o":"m 57 -3 q 14 24 18 -3 q 42 121 14 35 q 168 607 144 440 l 85 592 l 81 592 q 64 598 69 592 q 58 613 58 604 q 74 635 58 625 q 192 669 143 669 q 257 631 233 669 l 260 625 q 267 589 267 611 q 232 433 265 538 q 93 57 172 246 l 146 67 l 171 71 q 188 65 182 71 q 193 50 193 58 q 178 28 193 38 q 57 -3 104 -3 z "},"[":{"ha":253,"x_min":25,"x_max":232,"o":"m 190 -46 l 68 -46 q 49 -40 58 -46 q 39 -21 40 -33 q 29 142 33 22 q 25 390 25 261 q 40 683 25 621 q 89 714 50 714 l 215 714 q 232 694 232 714 q 228 679 232 686 q 215 672 224 672 l 143 672 q 103 94 107 514 l 101 -4 l 190 -4 q 207 -24 207 -4 q 203 -39 207 -32 q 190 -46 199 -46 z "},"\\":{"ha":346,"x_min":22,"x_max":325,"o":"m 301 0 q 286 11 292 0 q 242 114 281 22 q 156 323 204 206 q 68 531 107 440 q 24 636 29 622 l 22 644 q 29 658 22 653 q 43 664 36 664 q 63 651 54 664 l 249 204 q 325 21 325 24 q 317 6 325 13 q 301 0 310 0 z "},"]":{"ha":253,"x_min":21,"x_max":228,"o":"m 185 -46 l 61 -46 q 49 -39 53 -46 q 44 -24 44 -32 q 61 -4 44 -4 l 151 -4 l 150 94 q 110 672 146 514 l 38 672 q 25 679 29 672 q 21 694 21 686 q 38 714 21 714 l 164 714 q 211 683 203 714 q 228 381 228 619 q 224 138 228 254 q 214 -21 219 22 q 185 -46 206 -46 z "},"^":{"ha":322,"x_min":26,"x_max":296,"o":"m 272 590 q 263 594 267 590 l 161 689 l 60 594 q 50 590 56 590 q 34 597 42 590 q 26 613 26 604 q 33 626 26 619 q 57 648 40 632 q 92 681 74 664 q 124 712 110 699 q 146 732 139 725 q 163 739 153 739 q 176 732 169 739 q 198 712 183 725 q 231 681 213 699 q 265 648 249 664 q 289 626 282 632 q 296 613 296 619 q 288 597 296 604 q 272 590 281 590 z "},"_":{"ha":239,"x_min":21,"x_max":218,"o":"m 199 -46 l 38 -46 q 25 -39 29 -46 q 21 -24 21 -32 q 38 -4 21 -4 l 199 -4 q 213 -10 208 -4 q 218 -25 218 -17 q 213 -40 218 -33 q 199 -46 208 -46 z "},"`":{"ha":160,"x_min":25,"x_max":135,"o":"m 111 685 q 98 692 104 685 q 78 721 92 700 q 49 762 64 742 q 30 790 35 782 q 25 803 25 797 q 32 818 25 813 q 47 824 39 824 q 64 815 56 824 l 113 743 q 135 704 135 710 q 127 690 135 696 q 111 685 119 685 z "},"a":{"ha":283,"x_min":14,"x_max":268,"o":"m 232 0 q 213 10 221 0 q 204 39 204 19 l 204 51 q 190 192 204 101 l 82 192 q 43 7 58 22 q 29 0 36 0 q 14 25 17 0 q 61 368 14 42 l 101 644 q 115 663 104 656 q 143 669 126 669 q 183 655 163 669 q 213 606 203 640 q 250 358 232 529 q 268 86 268 188 q 266 39 268 58 q 253 10 264 19 q 232 0 243 0 m 185 233 q 128 526 161 382 q 89 233 111 394 l 185 233 z "},"b":{"ha":286,"x_min":14,"x_max":272,"o":"m 72 0 l 65 0 q 45 10 56 0 q 32 40 35 21 q 20 198 26 89 q 14 414 14 307 q 28 606 14 538 q 58 656 38 642 q 100 669 79 669 q 199 642 161 669 q 254 569 236 614 q 272 472 272 524 q 236 327 272 397 q 133 229 200 257 q 177 183 163 213 q 192 122 192 154 q 162 38 192 76 q 72 0 132 0 m 97 254 q 190 333 157 268 q 222 471 222 397 q 202 572 222 525 q 139 638 182 618 q 138 635 138 638 q 97 254 104 501 m 93 26 q 137 61 122 35 q 151 118 151 88 q 138 175 151 149 q 96 210 124 201 q 94 76 94 154 q 93 26 94 32 z "},"c":{"ha":267,"x_min":14,"x_max":253,"o":"m 183 0 q 89 49 126 0 q 33 174 51 97 q 14 333 14 250 q 33 492 14 415 q 89 617 51 568 q 183 665 126 665 q 235 636 217 665 q 253 564 253 607 q 238 515 253 515 q 226 525 229 515 q 179 618 213 618 q 125 526 143 618 q 107 325 107 435 q 125 124 107 215 q 179 32 143 32 q 222 100 203 32 q 233 113 226 113 q 242 99 240 113 q 227 33 240 65 q 183 0 214 0 z "},"d":{"ha":283,"x_min":14,"x_max":268,"o":"m 68 0 q 47 10 57 0 q 32 40 36 19 q 20 198 26 89 q 14 414 14 307 q 28 606 14 538 q 58 656 38 642 q 100 669 79 669 q 197 629 160 669 q 251 524 233 589 q 268 385 268 460 q 244 205 268 293 q 175 58 219 117 q 68 0 131 0 m 94 39 q 187 169 154 67 q 219 382 219 271 q 199 535 219 465 q 138 633 179 604 q 94 92 94 450 l 94 39 z "},"e":{"ha":263,"x_min":14,"x_max":249,"o":"m 78 -3 q 33 43 39 -3 q 20 198 26 89 q 14 414 14 307 q 28 606 14 538 q 115 681 42 681 q 232 653 158 681 q 249 631 249 644 q 242 616 249 622 q 226 610 236 610 l 221 610 l 136 625 q 99 233 106 493 l 161 233 q 179 214 179 233 q 174 199 179 206 q 161 192 169 192 l 99 192 l 96 56 l 176 71 l 181 71 q 198 64 192 71 q 204 49 204 57 q 188 28 204 36 l 168 21 q 78 -3 115 -3 z "},"f":{"ha":263,"x_min":14,"x_max":249,"o":"m 64 0 q 32 25 36 0 q 20 186 26 74 q 14 408 14 299 q 28 606 14 538 q 115 681 42 681 q 232 653 158 681 q 249 631 249 644 q 242 616 249 622 q 226 610 236 610 l 221 610 l 136 625 q 100 233 104 492 l 161 233 q 179 214 179 233 q 174 199 179 206 q 161 192 169 192 l 99 192 q 94 25 97 81 q 84 6 93 13 q 64 0 75 0 z "},"g":{"ha":303,"x_min":14,"x_max":289,"o":"m 269 0 q 254 4 261 0 q 247 15 247 8 q 247 35 247 21 q 244 69 246 50 q 183 0 225 0 q 89 49 126 0 q 33 174 51 97 q 14 333 14 250 q 33 492 14 415 q 89 617 51 568 q 183 665 126 665 q 235 636 217 665 q 253 564 253 607 q 238 515 253 515 q 226 525 229 515 q 179 618 213 618 q 125 526 143 618 q 107 325 107 435 q 125 124 107 215 q 179 32 143 32 q 216 78 206 32 q 228 198 226 125 q 231 350 231 271 q 240 371 231 364 q 260 378 249 378 q 280 371 271 378 q 289 350 289 364 l 289 17 q 269 0 289 0 z "},"h":{"ha":296,"x_min":14,"x_max":282,"o":"m 207 0 q 175 25 179 0 q 163 192 169 76 l 99 192 q 94 25 97 81 q 84 6 93 13 q 64 0 75 0 q 32 25 36 0 q 20 186 26 74 q 14 408 14 299 q 28 606 14 538 q 58 655 38 640 q 97 669 78 669 q 126 661 114 669 q 139 640 139 653 l 138 635 q 100 233 104 503 l 161 233 q 157 406 157 322 q 171 606 157 536 q 201 655 181 640 q 240 669 221 669 q 269 661 257 669 q 282 640 282 653 l 281 635 q 240 131 244 482 l 238 25 q 227 6 236 13 q 207 0 218 0 z "},"i":{"ha":153,"x_min":14,"x_max":139,"o":"m 64 0 q 32 25 36 0 q 20 186 26 74 q 14 408 14 299 q 28 606 14 538 q 58 655 38 640 q 97 669 78 669 q 126 661 114 669 q 139 640 139 653 l 138 635 q 97 131 101 482 l 94 25 q 84 6 93 13 q 64 0 75 0 z "},"j":{"ha":239,"x_min":14,"x_max":224,"o":"m 83 0 q 32 29 50 0 q 14 100 14 58 q 29 149 14 149 q 39 139 36 149 q 88 47 57 47 q 128 299 128 47 q 122 543 128 433 l 119 606 q 132 650 119 635 q 160 665 144 665 q 189 650 175 665 q 206 606 203 635 l 208 579 q 224 326 224 433 q 213 170 224 244 q 171 48 201 96 q 83 0 140 0 z "},"k":{"ha":256,"x_min":14,"x_max":242,"o":"m 217 0 q 203 8 208 0 q 117 149 199 15 q 94 25 94 53 q 84 6 93 13 q 64 0 75 0 q 32 25 36 0 q 20 186 26 74 q 14 408 14 299 q 28 606 14 538 q 58 655 38 640 q 97 669 78 669 q 126 661 114 669 q 139 640 139 653 l 138 635 q 100 244 107 511 q 193 651 188 622 q 211 665 199 665 q 227 660 219 665 q 235 646 235 654 l 214 561 l 129 204 q 203 85 172 133 q 238 31 233 38 q 242 21 242 25 q 233 6 242 13 q 217 0 225 0 z "},"l":{"ha":218,"x_min":14,"x_max":204,"o":"m 78 -3 q 33 43 39 -3 q 20 198 26 89 q 14 414 14 307 q 28 606 14 538 q 58 655 38 640 q 97 669 78 669 q 126 661 114 669 q 139 640 139 653 l 138 635 q 97 114 99 471 l 96 56 l 176 71 l 181 71 q 198 64 192 71 q 204 49 204 57 q 188 28 204 36 l 168 21 q 78 -3 115 -3 z "},"m":{"ha":378,"x_min":14,"x_max":363,"o":"m 310 0 q 290 10 299 0 q 282 39 282 19 l 283 117 q 257 543 283 364 l 221 393 q 189 367 214 367 q 156 393 163 367 l 119 543 q 94 93 94 357 l 94 39 q 86 10 94 19 q 67 0 78 0 q 45 10 56 0 q 32 40 35 19 q 20 198 26 89 q 14 414 14 307 q 28 606 14 538 q 58 655 38 640 q 97 669 78 669 q 124 663 113 669 q 138 645 135 656 q 155 572 140 635 q 189 426 169 510 q 222 574 208 513 q 239 646 236 635 q 253 663 242 657 q 279 669 264 669 q 319 655 299 669 q 350 606 339 640 q 363 421 363 540 q 356 201 363 313 q 344 40 350 90 q 331 10 342 21 q 310 0 321 0 z "},"n":{"ha":353,"x_min":14,"x_max":339,"o":"m 267 0 q 245 10 256 0 q 232 40 235 19 l 231 68 l 229 75 q 119 543 197 224 q 94 93 94 357 l 94 39 q 86 10 94 19 q 67 0 78 0 q 45 10 56 0 q 32 40 35 19 q 20 198 26 89 q 14 414 14 307 q 28 606 14 538 q 58 655 38 640 q 97 669 78 669 q 124 663 113 669 q 138 644 135 657 q 165 529 142 631 q 215 307 188 428 l 214 403 q 228 606 214 533 q 258 655 238 640 q 297 669 278 669 q 326 661 314 669 q 339 640 339 653 l 338 635 q 294 92 294 453 l 294 39 q 286 10 294 19 q 267 0 278 0 z "},"o":{"ha":340,"x_min":14,"x_max":326,"o":"m 183 0 q 89 49 126 0 q 33 174 51 97 q 14 333 14 250 q 33 492 14 415 q 89 617 51 568 q 183 665 126 665 q 263 617 231 665 q 310 492 294 568 q 326 333 326 415 q 310 174 326 250 q 263 49 294 97 q 183 0 231 0 m 179 32 q 227 124 211 32 q 243 325 243 215 q 227 526 243 435 q 179 618 211 618 q 125 526 143 618 q 107 325 107 435 q 125 124 107 215 q 179 32 143 32 z "},"p":{"ha":286,"x_min":14,"x_max":272,"o":"m 67 0 q 45 10 56 0 q 32 40 35 19 q 20 198 26 89 q 14 414 14 307 q 28 606 14 538 q 58 656 38 642 q 100 669 79 669 q 199 642 161 669 q 254 569 236 614 q 272 472 272 524 q 226 310 272 386 q 96 219 179 233 l 94 115 l 94 39 q 86 10 94 19 q 67 0 78 0 m 97 254 q 190 333 157 268 q 222 471 222 397 q 202 572 222 525 q 139 638 182 618 q 138 635 138 638 q 97 254 104 501 z "},"q":{"ha":340,"x_min":14,"x_max":325,"o":"m 301 0 q 289 6 293 0 q 263 50 285 13 q 183 0 232 0 q 89 49 126 0 q 33 174 51 97 q 14 333 14 250 q 33 492 14 415 q 89 617 51 568 q 183 665 126 665 q 263 617 231 665 q 310 492 294 568 q 325 333 325 415 q 285 92 325 199 q 324 28 322 31 q 325 19 325 25 q 317 6 325 11 q 301 0 310 0 m 179 32 q 225 111 208 32 l 204 144 q 191 165 197 154 q 185 185 185 175 q 190 201 185 194 q 201 208 194 208 q 218 196 210 208 q 235 171 226 183 q 243 324 243 244 q 227 526 243 435 q 179 618 211 618 q 125 526 143 618 q 107 325 107 435 q 125 124 107 215 q 179 32 143 32 z "},"r":{"ha":286,"x_min":14,"x_max":272,"o":"m 204 0 q 191 7 196 0 q 160 57 186 14 q 94 163 133 100 l 94 39 q 86 10 94 19 q 67 0 78 0 q 45 10 56 0 q 32 40 35 19 q 20 198 26 89 q 14 414 14 307 q 28 606 14 538 q 58 656 38 642 q 100 669 79 669 q 199 642 161 669 q 254 569 236 614 q 272 472 272 524 q 228 314 272 389 q 106 221 185 239 q 186 91 153 144 q 224 31 219 38 q 228 21 228 25 q 220 6 228 13 q 204 0 213 0 m 97 254 q 190 333 157 268 q 222 471 222 397 q 202 572 222 525 q 139 638 182 618 q 138 635 138 638 q 97 254 104 501 z "},"s":{"ha":283,"x_min":14,"x_max":269,"o":"m 169 0 q 110 24 126 1 q 93 75 93 47 q 102 122 93 100 q 125 157 111 144 q 136 161 131 161 q 146 151 146 161 q 143 143 146 147 q 125 89 125 115 q 133 51 125 68 q 167 31 146 31 q 190 68 190 31 q 118 211 190 136 q 56 296 85 249 q 14 450 14 363 q 63 606 14 546 q 179 665 113 665 q 268 538 268 665 q 254 438 268 486 q 211 363 233 363 q 197 375 197 363 q 200 385 197 379 q 228 456 218 413 q 238 538 238 499 q 229 594 238 571 q 203 618 221 618 q 131 560 160 618 q 103 435 103 501 q 126 336 103 381 q 190 256 157 290 q 246 188 222 222 q 269 101 269 153 q 260 57 269 81 q 229 17 251 33 q 169 0 207 0 z "},"t":{"ha":360,"x_min":14,"x_max":346,"o":"m 167 0 q 136 25 140 0 q 126 173 131 68 q 122 389 122 278 q 135 632 122 542 l 40 632 q 21 639 28 632 q 14 653 14 646 q 20 667 14 661 q 39 674 26 674 l 328 674 q 346 654 346 674 q 341 639 346 646 q 328 632 336 632 l 240 632 q 200 113 203 472 l 199 25 q 188 6 197 13 q 167 0 179 0 z "},"u":{"ha":381,"x_min":14,"x_max":367,"o":"m 292 0 q 261 25 265 0 q 249 188 254 74 q 143 0 225 0 q 14 282 14 0 q 33 553 14 389 l 39 606 q 56 650 42 635 q 85 665 69 665 q 114 650 101 665 q 126 606 126 635 l 124 543 q 118 299 118 433 q 158 47 118 47 q 206 116 188 47 q 233 269 224 185 q 242 400 242 354 q 256 606 242 533 q 285 655 265 640 q 325 669 306 669 q 354 661 342 669 q 367 640 367 653 l 365 635 q 325 131 329 482 l 322 25 q 312 6 321 13 q 292 0 303 0 z "},"v":{"ha":283,"x_min":14,"x_max":268,"o":"m 140 -1 q 101 13 121 -1 q 69 63 81 28 q 33 312 51 140 q 14 583 14 483 q 16 630 14 611 q 28 658 18 649 q 50 668 39 668 q 69 658 61 668 q 78 626 78 649 q 101 416 78 557 q 154 142 125 275 l 164 218 q 228 642 210 560 q 238 663 231 656 q 253 669 246 669 q 268 646 265 669 q 221 300 267 611 l 181 24 q 167 6 178 13 q 140 -1 156 -1 z "},"w":{"ha":378,"x_min":14,"x_max":363,"o":"m 279 0 q 253 7 264 0 q 239 24 242 14 q 222 96 236 35 q 189 243 208 157 l 157 107 q 138 24 140 36 q 124 6 135 13 q 97 0 113 0 q 58 15 78 0 q 28 64 38 29 q 14 256 14 132 q 20 472 14 363 q 32 629 26 581 q 45 660 35 650 q 67 669 56 669 q 86 660 78 669 q 94 631 94 650 l 94 576 q 119 126 94 313 l 156 276 q 189 303 163 303 q 221 276 214 303 l 257 126 q 283 553 283 306 l 282 631 q 290 660 282 650 q 310 669 299 669 q 331 660 321 669 q 344 629 342 650 q 356 468 350 579 q 363 249 363 357 q 350 64 363 129 q 319 15 339 29 q 279 0 299 0 z "},"x":{"ha":282,"x_min":14,"x_max":267,"o":"m 232 -1 q 207 15 217 -1 q 129 206 181 71 q 81 21 83 36 q 58 0 72 0 q 45 6 51 0 q 39 22 39 11 q 103 274 39 28 q 14 585 15 515 q 35 647 14 628 q 78 665 57 665 q 99 659 90 665 q 110 642 108 653 q 147 440 117 557 q 184 584 168 525 q 204 654 200 643 q 219 665 208 665 q 235 660 228 665 q 243 646 243 654 q 168 358 243 638 q 233 143 201 239 q 267 28 267 36 q 256 7 267 15 q 232 -1 244 -1 z "},"y":{"ha":322,"x_min":14,"x_max":308,"o":"m 168 0 q 115 29 133 0 q 97 100 97 58 q 114 149 97 149 q 124 139 121 149 q 171 47 140 47 q 211 297 211 47 q 131 192 190 192 q 14 422 14 192 q 24 582 14 507 l 25 606 q 43 650 29 635 q 72 665 57 665 q 100 650 88 665 q 113 606 113 635 l 111 557 q 108 429 108 499 q 144 239 108 239 q 183 285 169 239 q 201 395 196 331 q 206 515 206 460 l 203 606 q 215 650 203 635 q 244 665 228 665 q 274 650 260 665 q 290 606 288 635 l 293 569 q 308 325 308 464 q 297 169 308 244 q 255 47 285 94 q 168 0 225 0 z "},"z":{"ha":282,"x_min":14,"x_max":267,"o":"m 57 -3 q 14 24 18 -3 q 42 121 14 35 q 168 607 144 440 l 85 592 l 81 592 q 64 598 69 592 q 58 613 58 604 q 74 635 58 625 q 192 669 143 669 q 257 631 233 669 l 260 625 q 267 589 267 611 q 232 433 265 538 q 93 57 172 246 l 146 67 l 171 71 q 188 65 182 71 q 193 50 193 58 q 178 28 193 38 q 57 -3 104 -3 z "},"{":{"ha":282,"x_min":49,"x_max":254,"o":"m 210 -61 q 139 -28 164 -58 q 103 121 103 15 l 106 224 q 97 294 106 265 q 58 322 88 322 q 49 335 49 322 q 58 347 49 347 q 100 382 92 347 q 108 467 108 417 l 107 538 q 114 625 107 583 q 210 731 128 725 q 240 722 226 731 q 254 708 254 714 q 249 706 254 706 q 207 680 222 706 q 181 613 192 654 q 163 526 171 572 q 138 413 153 465 q 94 335 122 360 q 138 257 122 310 q 164 144 153 204 q 182 56 172 97 q 207 -10 192 15 q 249 -36 222 -36 q 254 -39 254 -36 q 240 -53 254 -44 q 210 -61 226 -61 z "},"|":{"ha":168,"x_min":25,"x_max":144,"o":"m 69 -46 q 39 -21 43 -46 q 29 142 33 22 q 25 390 25 261 q 40 683 25 621 q 90 714 50 714 q 127 704 110 714 q 144 681 144 694 l 144 675 q 103 78 107 511 l 101 -21 q 91 -40 100 -33 q 69 -46 82 -46 z "},"}":{"ha":282,"x_min":28,"x_max":235,"o":"m 79 -61 l 72 -61 q 42 -53 56 -61 q 28 -39 28 -44 q 33 -36 28 -36 q 75 -10 60 -36 q 101 56 90 15 q 119 144 111 97 q 146 258 131 206 q 189 335 161 310 q 146 413 161 360 q 119 525 131 465 q 101 613 111 572 q 75 680 90 654 q 33 706 60 706 q 28 708 28 706 q 42 722 28 714 q 72 731 56 731 q 169 625 156 725 q 175 538 175 583 l 175 467 q 183 382 175 417 q 224 347 192 347 q 235 335 235 347 q 224 322 235 322 q 186 294 194 322 q 178 224 178 267 l 179 121 q 161 3 179 56 q 79 -61 143 -50 z "},"~":{"ha":301,"x_min":19,"x_max":283,"o":"m 26 297 q 22 303 25 297 q 19 318 19 308 q 22 332 19 325 q 85 371 38 371 q 172 354 125 371 q 244 340 215 340 q 278 358 268 340 l 281 363 q 283 354 283 363 q 219 301 283 301 q 136 314 179 301 q 69 325 97 325 q 29 300 39 325 q 26 297 28 297 z "},"¡":{"ha":176,"x_min":24,"x_max":149,"o":"m 65 -143 q 36 -135 49 -143 q 24 -114 24 -126 l 25 -108 q 65 336 61 43 l 68 428 q 78 447 69 440 q 99 453 88 453 q 129 428 125 453 q 142 284 136 381 q 149 93 149 188 q 135 -79 149 -15 q 105 -128 125 -114 q 65 -143 85 -143 m 99 467 q 77 475 86 467 q 68 496 68 483 q 77 517 68 508 q 99 526 86 526 q 120 517 111 526 q 129 496 129 508 q 120 475 129 483 q 99 467 111 467 z "},"¢":{"ha":321,"x_min":60,"x_max":299,"o":"m 219 -53 q 205 -48 211 -53 q 199 -33 199 -43 l 199 4 q 94 124 129 29 q 60 332 60 219 q 94 540 60 444 q 199 660 129 636 l 199 706 q 206 718 199 714 q 219 722 213 722 q 239 706 239 722 l 239 664 q 283 631 268 658 q 299 565 299 604 q 283 515 299 515 q 272 525 275 515 q 239 611 261 592 l 239 38 q 268 100 256 56 q 279 113 272 113 q 288 99 286 113 q 275 40 286 69 q 239 1 264 10 l 239 -33 q 233 -48 239 -43 q 219 -53 226 -53 m 199 50 l 199 600 q 165 488 176 565 q 153 325 153 411 q 165 162 153 239 q 199 50 176 85 z "},"£":{"ha":271,"x_min":21,"x_max":249,"o":"m 219 0 l 42 0 q 26 6 32 0 q 21 21 21 13 q 26 35 21 29 q 42 42 32 42 q 70 70 63 42 q 78 144 78 99 q 72 269 78 199 l 69 319 l 42 319 q 22 333 22 319 q 42 346 22 346 l 68 346 q 65 436 65 392 q 74 550 65 497 q 108 634 83 603 q 179 665 132 665 q 231 636 213 665 q 249 564 249 607 q 233 515 249 515 q 224 525 226 515 q 176 618 208 618 q 149 587 156 618 q 142 507 142 556 q 144 408 142 463 l 147 346 l 179 346 q 197 333 197 346 q 192 324 197 328 q 179 319 188 319 l 149 319 l 149 275 q 96 42 149 94 l 219 42 q 238 22 238 42 q 233 7 238 14 q 219 0 228 0 z "},"¤":{"ha":294,"x_min":25,"x_max":271,"o":"m 258 188 q 244 194 251 188 l 224 221 q 151 192 197 192 q 72 222 104 192 q 59 206 65 214 q 48 193 53 199 q 36 188 43 188 q 25 199 25 188 q 43 226 25 206 l 56 242 q 28 335 28 285 q 53 425 28 383 q 31 452 36 446 q 25 465 25 458 q 35 476 25 475 q 61 456 43 476 l 71 444 q 151 478 100 478 q 226 447 200 478 l 243 467 q 260 476 253 476 q 271 465 269 476 q 264 450 271 458 l 243 426 q 267 336 267 385 q 240 240 267 285 q 256 222 250 229 q 267 209 263 214 q 271 199 271 204 q 258 188 271 188 m 149 233 q 185 265 172 233 q 197 335 197 297 q 185 404 197 372 q 149 436 172 436 q 112 404 124 436 q 100 335 100 372 q 112 265 100 297 q 149 233 124 233 z "},"¥":{"ha":388,"x_min":47,"x_max":365,"o":"m 201 0 q 149 29 167 0 q 131 100 131 58 q 147 149 131 149 q 157 139 154 149 q 204 47 174 47 q 238 135 232 47 l 226 135 q 207 149 207 135 q 226 161 207 161 l 240 161 l 242 175 l 226 175 q 207 189 207 175 q 226 201 207 201 l 243 201 q 244 297 244 247 q 164 192 224 192 q 47 421 47 192 q 57 582 47 507 l 58 604 q 76 650 63 635 q 106 665 90 665 q 133 650 121 665 q 146 604 146 635 l 144 556 q 142 428 142 497 q 178 239 142 239 q 216 285 203 239 q 234 394 229 331 q 239 515 239 458 l 236 606 q 249 650 236 635 q 278 665 261 665 q 307 650 293 665 q 324 606 321 635 l 326 583 q 342 326 342 435 q 335 201 342 263 l 349 201 q 365 189 365 201 q 361 179 365 183 q 349 175 357 175 l 331 175 l 329 161 l 349 161 q 365 149 365 161 q 361 139 365 143 q 349 135 357 135 l 324 135 q 201 0 292 0 z "},"¦":{"ha":157,"x_min":14,"x_max":133,"o":"m 58 -46 q 28 -21 32 -46 q 15 281 18 54 q 27 308 15 297 q 56 319 39 319 q 84 308 72 319 q 96 279 96 297 q 92 56 92 149 l 90 -21 q 80 -40 89 -33 q 58 -46 71 -46 m 57 344 q 26 357 39 344 q 14 388 14 369 q 29 683 14 619 q 79 714 39 714 q 116 704 99 714 q 133 681 133 694 l 133 675 q 100 385 107 565 q 87 356 99 368 q 57 344 75 344 z "},"§":{"ha":346,"x_min":31,"x_max":288,"o":"m 188 -368 q 110 -294 110 -365 q 119 -247 110 -269 q 142 -211 128 -224 q 153 -207 147 -207 q 163 -218 163 -207 q 160 -226 163 -222 q 142 -281 142 -253 q 150 -317 142 -301 q 182 -339 163 -339 q 207 -300 207 -339 q 135 -158 207 -233 q 72 -75 101 -121 q 31 81 31 -7 q 99 257 31 196 q 33 407 50 314 q 31 450 31 429 q 80 606 31 546 q 196 665 129 665 q 285 538 285 665 q 271 438 285 486 q 228 363 251 363 q 214 375 214 363 q 217 385 214 379 q 244 455 235 413 q 254 536 254 497 q 246 594 254 571 q 219 618 238 618 q 148 560 176 618 q 119 435 119 501 q 143 336 119 381 q 205 255 174 289 q 258 186 236 221 q 288 75 288 139 q 264 -22 288 26 q 183 -86 240 -69 l 208 -114 q 263 -182 240 -147 q 286 -267 286 -217 q 277 -311 286 -287 q 247 -351 268 -335 q 188 -368 225 -368 m 160 -56 q 196 -8 185 -43 q 207 61 207 26 q 149 193 207 129 q 119 67 119 135 q 160 -56 119 -3 z "},"¨":{"ha":126,"x_min":14,"x_max":113,"o":"m 38 731 q 21 738 28 731 q 14 754 14 744 q 21 771 14 764 q 38 778 28 778 q 54 771 47 778 q 61 754 61 764 q 54 738 61 744 q 38 731 47 731 m 89 731 q 72 738 79 731 q 65 754 65 744 q 72 771 65 764 q 89 778 79 778 q 106 771 99 778 q 113 754 113 764 q 106 738 113 744 q 89 731 99 731 z "},"©":{"ha":433,"x_min":14,"x_max":419,"o":"m 217 140 q 74 200 133 140 q 14 344 14 260 q 74 488 14 428 q 217 547 133 547 q 360 488 301 547 q 419 344 419 428 q 360 200 419 260 q 217 140 301 140 m 217 168 q 342 219 290 168 q 393 344 393 271 q 342 469 393 417 q 217 521 290 521 q 92 469 144 521 q 40 344 40 417 q 92 219 40 271 q 217 168 144 168 m 231 201 q 175 247 193 201 q 157 347 157 292 q 175 447 157 401 q 231 492 193 492 q 261 447 261 492 q 254 426 261 426 q 250 431 251 426 q 229 471 242 471 q 205 431 213 471 q 197 343 197 390 q 205 254 197 294 q 229 214 213 214 q 247 244 240 214 q 253 250 250 250 q 256 244 256 250 q 250 216 256 231 q 231 201 244 201 z "},"ª":{"ha":163,"x_min":17,"x_max":144,"o":"m 126 332 q 113 350 113 332 q 106 426 113 376 l 51 426 l 38 344 q 25 332 33 332 q 17 343 18 332 q 40 515 18 360 l 61 654 q 81 667 64 667 q 117 635 107 667 q 135 510 125 596 q 144 374 144 424 q 143 351 144 360 q 137 337 142 342 q 126 332 132 332 m 101 447 q 74 594 90 522 l 54 447 l 101 447 z "},"«":{"ha":275,"x_min":14,"x_max":251,"o":"m 139 210 q 128 215 133 210 q 19 331 106 238 q 14 346 14 336 q 19 360 14 353 l 128 474 q 140 479 133 479 q 154 472 147 479 q 161 457 161 465 q 157 446 161 451 q 63 344 126 411 q 157 244 114 293 q 161 233 161 239 q 154 217 161 225 q 139 210 147 210 m 228 210 q 217 215 222 210 l 110 331 q 103 346 103 336 q 110 360 103 353 q 130 381 117 367 q 160 414 143 396 q 194 449 178 432 q 216 472 210 465 q 229 479 222 479 q 244 472 238 479 q 251 456 251 464 q 247 446 251 450 l 153 344 l 193 301 q 226 267 211 283 q 247 245 242 251 q 251 233 251 239 q 244 217 251 225 q 228 210 238 210 z "},"®":{"ha":433,"x_min":14,"x_max":419,"o":"m 217 140 q 74 200 133 140 q 14 344 14 260 q 74 488 14 428 q 217 547 133 547 q 360 489 301 547 q 419 344 418 431 q 360 200 419 260 q 217 140 301 140 m 217 168 q 342 219 290 168 q 393 344 393 271 q 342 469 393 417 q 217 521 290 521 q 92 469 144 521 q 40 344 40 417 q 92 219 40 271 q 217 168 144 168 m 199 200 q 175 385 175 200 q 182 466 175 438 q 214 494 189 494 q 270 468 253 494 q 288 408 288 442 q 269 339 288 372 q 215 297 250 306 q 251 240 236 264 q 267 214 265 217 q 268 210 268 211 q 258 201 268 201 q 252 204 254 201 q 210 272 250 207 l 210 217 q 199 200 210 200 m 211 313 q 252 347 238 318 q 267 407 267 375 q 229 481 267 464 l 229 479 q 211 313 213 407 z "},"¯":{"ha":203,"x_min":21,"x_max":181,"o":"m 164 664 l 42 664 q 26 670 32 664 q 21 685 21 676 q 26 699 21 693 q 42 706 32 706 l 164 706 q 181 686 181 706 q 176 671 181 678 q 164 664 172 664 z "},"°":{"ha":125,"x_min":14,"x_max":111,"o":"m 63 618 q 28 633 42 618 q 14 667 14 647 q 28 701 14 688 q 63 715 42 715 q 96 701 82 715 q 111 667 110 688 q 97 633 111 647 q 63 618 82 618 m 63 653 q 72 657 68 653 q 78 667 76 661 q 73 678 78 674 q 63 682 68 682 q 51 678 56 682 q 47 667 47 674 q 51 657 47 661 q 63 653 56 653 z "},"±":{"ha":203,"x_min":21,"x_max":181,"o":"m 100 263 q 81 281 81 263 l 81 322 l 42 322 q 26 328 32 322 q 21 343 21 335 q 26 358 21 351 q 42 364 32 364 l 81 364 l 81 403 q 87 417 81 413 q 101 422 93 422 q 116 417 110 422 q 122 403 122 413 l 122 364 l 164 364 q 181 344 181 364 q 176 329 181 336 q 164 322 172 322 l 122 322 l 122 281 q 115 267 122 272 q 100 263 108 263 m 164 204 l 42 204 q 26 210 32 204 q 21 225 21 217 q 26 240 21 233 q 42 246 32 246 l 164 246 q 181 226 181 246 q 176 211 181 218 q 164 204 172 204 z "},"²":{"ha":168,"x_min":17,"x_max":121,"o":"m 108 363 l 26 363 q 17 372 17 363 q 24 382 17 379 q 55 417 42 382 q 76 499 68 451 q 85 585 85 546 q 65 646 85 646 q 43 603 51 646 q 39 599 42 599 q 32 622 32 599 q 40 654 32 642 q 64 667 49 667 q 108 637 94 667 q 121 565 121 607 q 103 460 121 514 q 57 382 86 407 l 108 382 q 117 372 117 382 q 108 363 117 363 z "},"³":{"ha":151,"x_min":18,"x_max":121,"o":"m 56 363 q 28 376 38 363 q 18 410 18 390 q 25 432 18 432 q 29 426 28 432 q 39 396 33 407 q 57 385 44 385 q 81 413 72 385 q 89 476 89 442 q 81 533 89 507 q 57 558 74 558 q 50 564 50 558 q 58 569 50 569 q 72 584 67 569 q 78 614 78 599 q 61 646 78 646 q 39 603 47 646 q 35 599 39 599 q 28 622 28 599 q 36 654 28 642 q 60 667 44 667 q 99 649 85 667 q 113 608 113 631 q 82 563 113 579 q 111 522 101 550 q 121 463 121 494 q 105 394 121 425 q 56 363 89 363 z "},"´":{"ha":160,"x_min":25,"x_max":135,"o":"m 47 685 q 32 690 39 685 q 25 706 25 696 q 30 719 25 711 q 49 747 35 726 q 78 788 64 767 q 98 817 92 808 q 111 825 104 825 q 127 819 119 825 q 135 804 135 813 q 113 765 135 799 l 64 693 q 47 685 56 685 z "},"·":{"ha":89,"x_min":14,"x_max":75,"o":"m 44 313 q 23 322 32 313 q 14 343 14 331 q 23 365 14 356 q 44 374 32 374 q 66 365 57 374 q 75 343 75 356 q 66 322 75 331 q 44 313 57 313 z "},"¸":{"ha":133,"x_min":14,"x_max":119,"o":"m 67 -118 q 29 -102 44 -118 q 14 -64 14 -86 q 19 -52 14 -57 q 31 -47 24 -47 q 42 -52 38 -47 q 47 -65 47 -57 q 53 -78 47 -72 q 67 -85 58 -85 q 81 -78 75 -85 q 88 -64 88 -72 q 81 -51 88 -57 q 67 -44 75 -44 q 60 -46 65 -44 q 50 -47 56 -47 q 36 -39 42 -47 q 35 -32 35 -36 q 44 -17 35 -22 q 67 -11 54 -11 q 104 -26 89 -11 q 119 -64 119 -42 q 104 -102 119 -86 q 67 -118 89 -118 z "},"¹":{"ha":110,"x_min":17,"x_max":93,"o":"m 60 363 q 46 374 47 363 q 36 557 36 442 q 40 632 36 603 q 28 611 32 622 q 24 608 26 608 q 17 619 17 608 q 36 656 17 636 q 75 669 51 669 q 88 666 82 669 q 93 657 93 663 l 93 654 q 75 425 76 586 l 74 374 q 60 363 74 363 z "},"º":{"ha":200,"x_min":36,"x_max":165,"o":"m 104 363 q 53 410 71 363 q 36 515 36 457 q 53 619 36 572 q 104 667 71 667 q 150 619 135 667 q 165 515 165 572 q 150 410 165 457 q 104 363 135 363 m 103 378 q 122 419 115 378 q 128 513 128 461 q 122 604 128 563 q 103 646 115 646 q 85 604 90 646 q 79 513 79 563 q 85 419 79 461 q 103 378 90 378 z "},"»":{"ha":276,"x_min":25,"x_max":263,"o":"m 138 210 q 121 217 128 210 q 114 233 114 225 q 118 244 114 239 l 214 344 l 169 392 q 138 425 153 410 q 119 445 124 440 q 114 456 114 450 q 121 472 114 464 q 136 479 128 479 q 149 473 143 479 q 171 451 156 467 q 203 416 186 435 q 235 382 221 397 q 256 360 250 367 q 263 346 263 353 q 256 330 263 336 q 237 309 250 324 q 206 276 224 294 q 172 240 188 257 q 149 217 156 224 q 138 210 143 210 m 47 210 q 32 217 39 210 q 25 233 25 225 q 30 245 25 239 q 50 267 35 251 q 83 301 65 283 l 124 344 l 29 446 q 25 456 25 450 q 32 472 25 464 q 47 479 39 479 q 60 472 54 479 q 83 449 67 465 q 116 414 99 432 q 147 381 133 396 q 166 360 160 367 q 172 346 172 353 q 167 331 172 336 l 60 215 q 47 210 54 210 z "},"¼":{"ha":358,"x_min":21,"x_max":340,"o":"m 46 0 q 29 6 38 0 q 21 21 21 13 q 90 190 21 24 l 285 651 q 303 664 292 664 q 317 658 311 664 q 324 644 324 653 q 283 544 324 640 l 122 156 q 60 10 65 19 q 46 0 56 0 m 64 363 q 50 374 51 363 q 40 557 40 442 q 44 632 40 603 q 32 611 36 622 q 28 608 31 608 q 21 619 21 608 q 40 656 21 636 q 79 669 56 669 q 92 666 86 669 q 97 657 97 663 l 97 654 q 79 425 81 586 l 78 374 q 64 363 78 363 m 307 0 q 295 4 301 0 q 285 110 289 8 l 225 110 q 215 118 215 110 q 267 232 215 121 l 292 285 q 321 307 306 307 q 335 303 329 307 q 340 293 340 299 l 340 290 q 321 43 322 213 q 320 12 321 24 q 307 0 319 0 m 285 128 l 283 193 l 283 222 q 240 128 253 157 l 285 128 z "},"½":{"ha":385,"x_min":21,"x_max":338,"o":"m 325 0 l 243 0 q 233 8 233 0 q 240 18 233 15 q 243 19 240 19 q 272 54 258 19 q 293 136 285 89 q 301 222 301 183 q 282 283 301 283 q 260 240 269 283 q 256 236 258 236 q 249 260 249 236 q 257 292 249 279 q 281 304 265 304 q 324 274 311 304 q 338 203 338 244 q 320 98 338 151 q 274 19 303 44 l 325 19 q 333 10 333 19 q 325 0 333 0 m 46 0 q 29 6 38 0 q 21 21 21 13 q 90 190 21 24 l 285 651 q 303 664 292 664 q 317 658 311 664 q 324 644 324 653 q 283 544 324 640 l 122 156 q 60 10 65 19 q 46 0 56 0 m 64 363 q 50 374 51 363 q 40 557 40 442 q 44 632 40 603 q 32 611 36 622 q 28 608 31 608 q 21 619 21 608 q 40 656 21 636 q 79 669 56 669 q 92 666 86 669 q 97 657 97 663 l 97 654 q 79 425 81 586 l 78 374 q 64 363 78 363 z "},"¾":{"ha":358,"x_min":21,"x_max":339,"o":"m 58 363 q 31 376 40 363 q 21 410 21 390 q 28 432 21 432 q 32 426 31 432 q 42 396 36 407 q 60 385 47 385 q 83 413 75 385 q 92 476 92 442 q 84 533 92 507 q 60 558 76 558 q 53 564 53 558 q 61 569 53 569 q 75 584 69 569 q 81 614 81 599 q 64 646 81 646 q 42 603 50 646 q 38 599 42 599 q 31 622 31 599 q 39 654 31 642 q 63 667 47 667 q 101 649 88 667 q 115 608 115 631 q 85 563 115 579 q 114 522 104 550 q 124 463 124 494 q 108 394 124 425 q 58 363 92 363 m 46 0 q 29 6 38 0 q 21 21 21 13 l 283 651 q 303 664 292 664 q 317 658 310 664 q 324 644 324 653 q 322 635 324 640 q 151 228 319 629 l 61 10 q 46 0 56 0 m 306 0 q 294 4 300 0 q 285 110 289 8 q 218 113 221 110 q 215 119 215 115 l 292 285 q 321 307 306 307 q 334 303 329 307 q 339 293 339 299 l 339 290 q 321 63 322 222 l 319 11 q 306 0 319 0 m 283 128 l 283 222 l 239 128 l 283 128 z "},"¿":{"ha":286,"x_min":31,"x_max":263,"o":"m 176 465 q 156 474 164 465 q 147 496 147 483 q 156 517 147 508 q 176 526 164 526 q 199 517 190 526 q 207 496 207 508 q 199 474 207 483 q 176 465 190 465 m 193 -139 q 76 -77 122 -139 q 31 71 31 -15 q 68 225 31 147 q 118 315 92 275 q 153 377 139 349 q 167 429 167 406 q 181 444 167 444 q 192 440 188 444 q 197 429 197 436 q 167 304 197 389 q 118 114 138 219 q 114 68 114 90 q 138 -44 114 3 q 190 -92 163 -92 q 238 0 222 -92 q 247 10 240 10 q 263 -40 263 10 q 244 -110 263 -82 q 193 -139 226 -139 z "},"À":{"ha":283,"x_min":14,"x_max":268,"o":"m 232 0 q 213 10 221 0 q 204 39 204 19 l 204 51 q 190 192 204 101 l 82 192 q 43 7 58 22 q 29 0 36 0 q 14 25 17 0 q 61 368 14 42 l 101 644 q 115 663 104 656 q 143 669 126 669 q 183 655 163 669 q 213 606 203 640 q 250 358 232 529 q 268 86 268 188 q 266 39 268 58 q 253 10 264 19 q 232 0 243 0 m 185 233 q 128 526 161 382 q 89 233 111 394 l 185 233 m 146 690 q 133 699 139 690 q 113 727 126 707 q 84 768 99 747 q 65 797 69 789 q 60 810 60 804 q 67 824 60 818 q 82 831 74 831 q 99 819 90 831 q 140 761 108 807 l 168 721 q 171 711 171 717 q 163 697 171 703 q 146 690 156 690 z "},"Á":{"ha":283,"x_min":14,"x_max":268,"o":"m 232 0 q 213 10 221 0 q 204 39 204 19 l 204 51 q 190 192 204 101 l 82 192 q 43 7 58 22 q 29 0 36 0 q 14 25 17 0 q 61 368 14 42 l 101 644 q 115 663 104 656 q 143 669 126 669 q 183 655 163 669 q 213 606 203 640 q 250 358 232 529 q 268 86 268 188 q 266 39 268 58 q 253 10 264 19 q 232 0 243 0 m 185 233 q 128 526 161 382 q 89 233 111 394 l 185 233 m 150 690 q 135 697 142 690 q 128 711 128 703 q 132 722 128 717 q 167 773 139 733 q 201 822 194 813 q 215 831 207 831 q 231 824 224 831 q 239 810 239 818 q 236 800 239 806 q 215 769 229 789 q 188 731 201 750 q 167 701 175 711 q 150 690 160 690 z "},"Â":{"ha":283,"x_min":14,"x_max":268,"o":"m 232 0 q 213 10 221 0 q 204 39 204 19 l 204 51 q 190 192 204 101 l 82 192 q 43 7 58 22 q 29 0 36 0 q 14 25 17 0 q 61 368 14 42 l 101 644 q 115 663 104 656 q 143 669 126 669 q 183 655 163 669 q 213 606 203 640 q 250 358 232 529 q 268 86 268 188 q 266 39 268 58 q 253 10 264 19 q 232 0 243 0 m 185 233 q 128 526 161 382 q 89 233 111 394 l 185 233 m 207 690 q 190 701 197 690 q 167 732 182 711 q 140 774 153 753 l 103 718 q 87 697 92 704 q 75 690 82 690 q 59 697 67 690 q 51 711 51 703 q 54 721 51 715 l 121 819 q 142 831 131 831 q 156 822 150 831 q 190 773 163 813 q 225 722 218 733 q 229 711 229 717 q 222 697 229 703 q 207 690 215 690 z "},"Ã":{"ha":283,"x_min":14,"x_max":268,"o":"m 232 0 q 213 10 221 0 q 204 39 204 19 l 204 51 q 190 192 204 101 l 82 192 q 43 7 58 22 q 29 0 36 0 q 14 25 17 0 q 61 368 14 42 l 101 644 q 115 663 104 656 q 143 669 126 669 q 183 655 163 669 q 213 606 203 640 q 250 358 232 529 q 268 86 268 188 q 266 39 268 58 q 253 10 264 19 q 232 0 243 0 m 185 233 q 128 526 161 382 q 89 233 111 394 l 185 233 m 89 724 q 83 729 86 724 q 81 742 81 735 q 86 758 81 750 q 135 786 106 786 q 164 782 150 786 q 188 778 178 778 q 207 792 200 778 q 210 796 208 796 q 211 789 211 796 q 205 762 211 779 q 185 735 199 744 q 171 731 178 731 q 148 737 160 731 q 122 743 136 743 q 93 726 108 743 q 89 724 92 724 z "},"Ä":{"ha":283,"x_min":14,"x_max":268,"o":"m 232 0 q 213 10 221 0 q 204 39 204 19 l 204 51 q 190 192 204 101 l 82 192 q 43 7 58 22 q 29 0 36 0 q 14 25 17 0 q 61 368 14 42 l 101 644 q 115 663 104 656 q 143 669 126 669 q 183 655 163 669 q 213 606 203 640 q 250 358 232 529 q 268 86 268 188 q 266 39 268 58 q 253 10 264 19 q 232 0 243 0 m 185 233 q 128 526 161 382 q 89 233 111 394 l 185 233 m 126 738 q 110 744 117 738 q 104 760 104 750 q 110 776 104 769 q 126 783 117 783 q 143 776 136 783 q 150 760 150 769 q 143 744 150 750 q 126 738 136 738 m 179 738 q 163 744 169 738 q 156 760 156 750 q 163 776 156 769 q 179 783 169 783 q 195 776 189 783 q 201 760 201 769 q 195 744 201 750 q 179 738 189 738 z "},"Å":{"ha":283,"x_min":14,"x_max":268,"o":"m 232 0 q 213 10 221 0 q 204 39 204 19 l 204 51 q 190 192 204 101 l 82 192 q 43 7 58 22 q 29 0 36 0 q 14 25 17 0 q 61 368 14 42 l 101 644 q 115 663 104 656 q 143 669 126 669 q 183 655 163 669 q 213 606 203 640 q 250 358 232 529 q 268 86 268 188 q 266 39 268 58 q 253 10 264 19 q 232 0 243 0 m 185 233 q 128 526 161 382 q 89 233 111 394 l 185 233 m 149 725 q 123 735 133 725 q 113 760 113 746 q 123 785 113 775 q 149 796 133 796 q 174 785 164 796 q 185 760 185 775 q 174 735 185 746 q 149 725 164 725 m 149 750 q 160 760 160 750 q 149 771 160 771 q 138 760 138 771 q 149 750 138 750 z "},"Æ":{"ha":440,"x_min":14,"x_max":425,"o":"m 256 -4 q 215 8 225 -4 q 204 40 204 21 l 204 51 q 190 192 204 101 l 82 192 q 43 7 58 22 q 29 0 36 0 q 14 25 17 0 q 61 368 14 42 l 101 644 q 116 663 104 656 q 143 669 128 669 q 208 621 188 669 q 292 681 226 681 q 408 653 335 681 q 425 631 425 644 q 419 616 425 622 q 404 610 414 610 q 365 616 397 610 q 313 625 332 622 q 276 233 281 488 l 339 233 q 356 214 356 233 q 351 199 356 206 q 339 192 347 192 l 275 192 l 272 56 l 358 71 q 375 65 369 71 q 381 50 381 58 q 364 28 381 36 l 351 24 q 256 -4 285 -4 m 185 233 q 128 526 161 382 q 89 233 111 394 l 185 233 z "},"Ç":{"ha":267,"x_min":14,"x_max":253,"o":"m 181 -100 q 143 -85 158 -100 q 128 -47 128 -69 q 133 -35 128 -40 q 144 -31 138 -31 q 156 -35 151 -31 q 161 -48 161 -40 q 167 -61 161 -56 q 181 -67 172 -67 q 195 -61 189 -67 q 201 -47 201 -56 q 195 -33 201 -39 q 181 -28 189 -28 l 164 -31 q 150 -22 156 -31 q 149 -15 149 -19 q 152 -5 149 -10 q 158 1 156 0 q 163 3 161 1 q 51 119 89 21 q 14 333 14 217 q 33 492 14 415 q 89 617 51 568 q 183 665 126 665 q 235 636 217 665 q 253 564 253 607 q 238 515 253 515 q 226 525 229 515 q 179 618 213 618 q 125 526 143 618 q 107 325 107 435 q 125 124 107 215 q 179 32 143 32 q 222 100 203 32 q 233 113 226 113 q 242 99 240 113 q 230 42 240 69 q 197 3 219 14 q 233 -47 233 -11 q 218 -85 233 -69 q 181 -100 203 -100 z "},"È":{"ha":263,"x_min":14,"x_max":249,"o":"m 78 -3 q 33 43 39 -3 q 20 198 26 89 q 14 414 14 307 q 28 606 14 538 q 115 681 42 681 q 232 653 158 681 q 249 631 249 644 q 242 616 249 622 q 226 610 236 610 l 221 610 l 136 625 q 99 233 106 493 l 161 233 q 179 214 179 233 q 174 199 179 206 q 161 192 169 192 l 99 192 l 96 56 l 176 71 l 181 71 q 198 64 192 71 q 204 49 204 57 q 188 28 204 36 l 168 21 q 78 -3 115 -3 m 157 690 q 143 699 149 690 q 123 727 138 707 q 94 767 108 747 q 75 796 81 788 q 69 810 69 804 q 76 824 69 818 q 92 831 83 831 q 110 819 101 831 q 150 761 118 807 l 178 721 q 181 711 181 715 q 173 697 181 703 q 157 690 165 690 z "},"É":{"ha":263,"x_min":14,"x_max":249,"o":"m 78 -3 q 33 43 39 -3 q 20 198 26 89 q 14 414 14 307 q 28 606 14 538 q 115 681 42 681 q 232 653 158 681 q 249 631 249 644 q 242 616 249 622 q 226 610 236 610 l 221 610 l 136 625 q 99 233 106 493 l 161 233 q 179 214 179 233 q 174 199 179 206 q 161 192 169 192 l 99 192 l 96 56 l 176 71 l 181 71 q 198 64 192 71 q 204 49 204 57 q 188 28 204 36 l 168 21 q 78 -3 115 -3 m 126 690 q 111 697 118 690 q 104 711 104 703 q 108 722 104 717 q 143 773 115 733 q 177 822 171 813 q 192 831 183 831 q 208 824 200 831 q 215 810 215 818 q 213 800 215 806 q 192 769 206 789 q 165 731 178 750 q 144 701 151 711 q 126 690 136 690 z "},"Ê":{"ha":263,"x_min":14,"x_max":249,"o":"m 78 -3 q 33 43 39 -3 q 20 198 26 89 q 14 414 14 307 q 28 606 14 538 q 115 681 42 681 q 232 653 158 681 q 249 631 249 644 q 242 616 249 622 q 226 610 236 610 l 221 610 l 136 625 q 99 233 106 493 l 161 233 q 179 214 179 233 q 174 199 179 206 q 161 192 169 192 l 99 192 l 96 56 l 176 71 l 181 71 q 198 64 192 71 q 204 49 204 57 q 188 28 204 36 l 168 21 q 78 -3 115 -3 m 214 690 q 197 699 204 690 q 179 725 190 708 l 147 774 l 108 715 q 95 697 100 703 q 82 690 90 690 q 66 697 74 690 q 58 711 58 703 q 83 753 58 717 l 128 819 l 129 819 q 149 831 136 831 q 163 822 157 831 q 197 773 169 813 q 232 722 225 733 q 236 711 236 717 q 229 697 236 703 q 214 690 222 690 z "},"Ë":{"ha":263,"x_min":14,"x_max":249,"o":"m 78 -3 q 33 43 39 -3 q 20 198 26 89 q 14 414 14 307 q 28 606 14 538 q 115 681 42 681 q 232 653 158 681 q 249 631 249 644 q 242 616 249 622 q 226 610 236 610 l 221 610 l 136 625 q 99 233 106 493 l 161 233 q 179 214 179 233 q 174 199 179 206 q 161 192 169 192 l 99 192 l 96 56 l 176 71 l 181 71 q 198 64 192 71 q 204 49 204 57 q 188 28 204 36 l 168 21 q 78 -3 115 -3 m 124 738 q 108 744 114 738 q 101 760 101 750 q 108 776 101 769 q 124 783 114 783 q 140 776 133 783 q 147 760 147 769 q 140 744 147 750 q 124 738 133 738 m 176 738 q 160 744 167 738 q 153 760 153 750 q 160 776 153 769 q 176 783 167 783 q 193 776 186 783 q 200 760 200 769 q 193 744 200 750 q 176 738 186 738 z "},"Ì":{"ha":153,"x_min":14,"x_max":139,"o":"m 64 0 q 32 25 36 0 q 20 186 26 74 q 14 408 14 299 q 28 606 14 538 q 58 655 38 640 q 97 669 78 669 q 126 661 114 669 q 139 640 139 653 l 138 635 q 97 131 101 482 l 94 25 q 84 6 93 13 q 64 0 75 0 m 106 690 q 92 699 99 690 q 72 727 86 707 q 44 767 58 747 q 24 796 29 788 q 19 810 19 804 q 26 824 19 818 q 42 831 33 831 q 58 821 51 831 l 126 721 q 129 711 129 715 q 122 697 129 703 q 106 690 114 690 z "},"Í":{"ha":201,"x_min":14,"x_max":186,"o":"m 64 0 q 32 25 36 0 q 20 186 26 74 q 14 408 14 299 q 28 606 14 538 q 58 655 38 640 q 97 669 78 669 q 126 661 114 669 q 139 640 139 653 l 138 635 q 97 131 101 482 l 94 25 q 84 6 93 13 q 64 0 75 0 m 99 690 q 83 696 90 690 q 76 711 76 701 q 82 725 76 717 q 115 773 88 733 q 148 822 142 813 q 163 831 154 831 q 178 824 171 831 q 186 810 186 818 q 183 800 186 806 q 163 769 176 789 q 135 731 149 750 q 115 701 122 711 q 99 690 107 690 z "},"Î":{"ha":207,"x_min":14,"x_max":192,"o":"m 81 0 q 50 25 54 0 q 38 186 43 74 q 32 410 32 299 q 44 606 32 538 q 74 655 54 640 q 115 669 94 669 q 144 661 132 669 q 156 640 156 653 l 156 635 q 114 111 117 474 l 113 25 q 102 6 111 13 q 81 0 93 0 m 169 690 q 154 699 161 690 l 103 774 l 64 715 q 51 697 56 703 q 38 690 46 690 q 22 697 29 690 q 14 711 14 703 q 17 721 14 715 l 63 788 q 84 819 76 807 q 106 831 92 831 q 119 824 114 831 q 133 803 124 817 q 153 773 143 789 q 174 743 164 757 q 188 723 183 729 q 192 711 192 717 q 185 696 192 701 q 169 690 178 690 z "},"Ï":{"ha":161,"x_min":14,"x_max":147,"o":"m 64 0 q 32 25 36 0 q 20 186 26 74 q 14 408 14 299 q 28 606 14 538 q 58 655 38 640 q 97 669 78 669 q 126 661 114 669 q 139 640 139 653 l 138 635 q 97 131 101 482 l 94 25 q 84 6 93 13 q 64 0 75 0 m 72 738 q 56 744 63 738 q 49 760 49 750 q 56 776 49 769 q 72 783 63 783 q 89 776 82 783 q 96 760 96 769 q 89 744 96 750 q 72 738 82 738 m 124 738 q 107 744 114 738 q 100 760 100 750 q 107 776 100 769 q 124 783 114 783 q 140 776 133 783 q 147 760 147 769 q 140 744 147 750 q 124 738 133 738 z "},"Ð":{"ha":310,"x_min":14,"x_max":294,"o":"m 94 0 q 73 10 83 0 q 58 40 63 19 q 43 261 51 108 l 35 261 q 19 267 25 261 q 14 282 14 274 q 42 303 14 303 l 40 418 q 53 606 40 540 q 126 669 72 669 q 223 629 186 669 q 277 524 260 589 q 294 386 294 460 q 270 206 294 294 q 201 58 246 117 q 94 0 157 0 m 121 39 q 213 169 181 67 q 246 382 246 271 q 226 535 246 465 q 164 633 206 604 q 125 303 132 493 l 174 303 q 192 283 192 303 q 187 268 192 275 q 174 261 182 261 l 124 261 q 119 103 119 169 l 121 39 z "},"Ñ":{"ha":353,"x_min":14,"x_max":339,"o":"m 267 0 q 245 10 256 0 q 232 40 235 19 l 231 68 l 229 75 q 119 543 197 224 q 94 93 94 357 l 94 39 q 86 10 94 19 q 67 0 78 0 q 45 10 56 0 q 32 40 35 19 q 20 198 26 89 q 14 414 14 307 q 28 606 14 538 q 58 655 38 640 q 97 669 78 669 q 124 663 113 669 q 138 644 135 657 q 165 529 142 631 q 215 307 188 428 l 214 403 q 228 606 214 533 q 258 655 238 640 q 297 669 278 669 q 326 661 314 669 q 339 640 339 653 l 338 635 q 294 92 294 453 l 294 39 q 286 10 294 19 q 267 0 278 0 m 139 724 q 133 729 136 724 q 131 742 131 735 q 135 758 131 750 q 183 786 154 786 q 213 782 200 786 q 236 778 226 778 q 256 792 249 778 q 258 796 257 796 q 260 789 260 796 q 253 762 260 779 q 233 735 247 744 q 219 731 226 731 q 197 737 208 731 q 172 743 185 743 q 143 726 158 743 q 139 724 142 724 z "},"Ò":{"ha":340,"x_min":14,"x_max":326,"o":"m 183 0 q 89 49 126 0 q 33 174 51 97 q 14 333 14 250 q 33 492 14 415 q 89 617 51 568 q 183 665 126 665 q 263 617 231 665 q 310 492 294 568 q 326 333 326 415 q 310 174 326 250 q 263 49 294 97 q 183 0 231 0 m 179 32 q 227 124 211 32 q 243 325 243 215 q 227 526 243 435 q 179 618 211 618 q 125 526 143 618 q 107 325 107 435 q 125 124 107 215 q 179 32 143 32 m 182 690 q 167 699 174 690 q 133 747 161 707 q 100 796 106 788 q 94 810 94 804 q 101 824 94 818 q 117 831 108 831 q 135 819 126 831 q 175 761 143 807 l 203 721 q 206 711 206 715 q 198 697 206 703 q 182 690 190 690 z "},"Ó":{"ha":340,"x_min":14,"x_max":326,"o":"m 183 0 q 89 49 126 0 q 33 174 51 97 q 14 333 14 250 q 33 492 14 415 q 89 617 51 568 q 183 665 126 665 q 263 617 231 665 q 310 492 294 568 q 326 333 326 415 q 310 174 326 250 q 263 49 294 97 q 183 0 231 0 m 179 32 q 227 124 211 32 q 243 325 243 215 q 227 526 243 435 q 179 618 211 618 q 125 526 143 618 q 107 325 107 435 q 125 124 107 215 q 179 32 143 32 m 192 690 q 176 696 183 690 q 169 711 169 701 q 175 725 169 717 q 208 773 181 733 q 241 822 235 813 q 256 831 247 831 q 272 824 264 831 q 279 810 279 818 q 276 800 279 806 q 256 769 269 789 q 228 731 242 750 q 208 701 215 711 q 192 690 200 690 z "},"Ô":{"ha":340,"x_min":14,"x_max":326,"o":"m 183 0 q 89 49 126 0 q 33 174 51 97 q 14 333 14 250 q 33 492 14 415 q 89 617 51 568 q 183 665 126 665 q 263 617 231 665 q 310 492 294 568 q 326 333 326 415 q 310 174 326 250 q 263 49 294 97 q 183 0 231 0 m 179 32 q 227 124 211 32 q 243 325 243 215 q 227 526 243 435 q 179 618 211 618 q 125 526 143 618 q 107 325 107 435 q 125 124 107 215 q 179 32 143 32 m 251 690 q 234 701 242 690 q 213 732 226 711 q 185 774 199 753 l 146 715 q 133 697 138 703 q 119 690 128 690 q 103 697 111 690 q 96 711 96 703 q 99 721 96 715 l 144 788 q 166 819 158 807 q 188 831 174 831 q 199 824 194 831 q 210 808 204 818 l 243 761 q 274 711 274 718 q 267 697 274 703 q 251 690 260 690 z "},"Õ":{"ha":340,"x_min":14,"x_max":326,"o":"m 183 0 q 89 49 126 0 q 33 174 51 97 q 14 333 14 250 q 33 492 14 415 q 89 617 51 568 q 183 665 126 665 q 263 617 231 665 q 310 492 294 568 q 326 333 326 415 q 310 174 326 250 q 263 49 294 97 q 183 0 231 0 m 179 32 q 227 124 211 32 q 243 325 243 215 q 227 526 243 435 q 179 618 211 618 q 125 526 143 618 q 107 325 107 435 q 125 124 107 215 q 179 32 143 32 m 122 724 q 117 730 119 724 q 114 743 114 736 q 118 758 114 750 q 167 786 138 786 q 197 782 183 786 q 219 778 210 778 q 240 792 233 778 q 243 796 242 796 q 244 789 244 796 q 238 762 244 779 q 218 735 232 744 q 204 731 211 731 q 181 737 193 731 q 156 743 169 743 q 126 726 142 743 q 122 724 125 724 z "},"Ö":{"ha":340,"x_min":14,"x_max":326,"o":"m 183 0 q 89 49 126 0 q 33 174 51 97 q 14 333 14 250 q 33 492 14 415 q 89 617 51 568 q 183 665 126 665 q 263 617 231 665 q 310 492 294 568 q 326 333 326 415 q 310 174 326 250 q 263 49 294 97 q 183 0 231 0 m 179 32 q 227 124 211 32 q 243 325 243 215 q 227 526 243 435 q 179 618 211 618 q 125 526 143 618 q 107 325 107 435 q 125 124 107 215 q 179 32 143 32 m 157 738 q 141 744 147 738 q 135 760 135 750 q 141 776 135 769 q 157 783 147 783 q 174 776 167 783 q 181 760 181 769 q 174 744 181 750 q 157 738 167 738 m 210 738 q 193 744 200 738 q 186 760 186 750 q 193 776 186 769 q 210 783 200 783 q 226 776 219 783 q 233 760 233 769 q 226 744 233 750 q 210 738 219 738 z "},"×":{"ha":181,"x_min":26,"x_max":154,"o":"m 131 279 q 122 283 125 279 q 115 289 118 286 q 90 314 104 299 l 61 283 q 50 279 56 279 q 34 286 42 279 q 26 301 26 293 q 61 343 26 310 q 39 365 47 356 l 33 371 q 28 385 28 378 q 34 399 28 393 q 49 406 40 406 q 63 400 56 406 l 90 372 l 118 400 q 132 406 125 406 q 147 399 140 406 q 154 385 154 393 q 147 371 154 378 l 142 365 q 119 343 133 356 l 150 313 q 154 301 154 307 q 147 286 154 293 q 131 279 139 279 z "},"Ø":{"ha":340,"x_min":14,"x_max":325,"o":"m 117 -42 q 102 -37 108 -42 q 96 -24 96 -32 q 104 33 97 -7 q 36 160 58 78 q 14 333 14 242 q 33 492 14 417 q 89 617 51 568 q 183 665 126 665 q 207 661 196 665 q 211 690 210 679 q 213 704 213 700 q 220 711 214 708 q 233 714 226 714 q 247 710 240 714 q 254 697 254 706 q 251 672 254 688 q 244 636 247 656 q 305 509 285 593 q 325 331 325 425 q 310 173 325 249 q 263 49 294 97 q 183 0 231 0 q 142 8 161 0 l 136 -25 q 117 -42 133 -42 m 121 140 l 197 607 q 179 618 190 618 q 124 526 143 618 q 106 325 106 435 q 121 140 106 226 m 179 32 q 227 123 211 32 q 243 324 243 214 q 226 526 243 435 l 150 54 q 179 32 163 32 z "},"Ù":{"ha":381,"x_min":14,"x_max":367,"o":"m 292 0 q 261 25 265 0 q 249 188 254 74 q 143 0 225 0 q 14 282 14 0 q 33 553 14 389 l 39 606 q 56 650 42 635 q 85 665 69 665 q 114 650 101 665 q 126 606 126 635 l 124 543 q 118 299 118 433 q 158 47 118 47 q 206 116 188 47 q 233 269 224 185 q 242 400 242 354 q 256 606 242 533 q 285 655 265 640 q 325 669 306 669 q 354 661 342 669 q 367 640 367 653 l 365 635 q 325 131 329 482 l 322 25 q 312 6 321 13 q 292 0 303 0 m 196 690 q 181 699 188 690 q 147 747 175 707 q 114 796 119 788 q 108 810 108 804 q 115 824 108 818 q 131 831 122 831 q 149 819 140 831 q 189 761 157 807 l 217 721 q 219 711 219 715 q 212 697 219 703 q 196 690 204 690 z "},"Ú":{"ha":381,"x_min":14,"x_max":367,"o":"m 292 0 q 261 25 265 0 q 249 188 254 74 q 143 0 225 0 q 14 282 14 0 q 33 553 14 389 l 39 606 q 56 650 42 635 q 85 665 69 665 q 114 650 101 665 q 126 606 126 635 l 124 543 q 118 299 118 433 q 158 47 118 47 q 206 116 188 47 q 233 269 224 185 q 242 400 242 354 q 256 606 242 533 q 285 655 265 640 q 325 669 306 669 q 354 661 342 669 q 367 640 367 653 l 365 635 q 325 131 329 482 l 322 25 q 312 6 321 13 q 292 0 303 0 m 189 690 q 174 697 181 690 q 167 711 167 703 q 171 722 167 717 l 240 824 q 253 831 246 831 q 270 824 263 831 q 278 810 278 818 q 275 800 278 804 q 254 769 268 789 q 227 731 240 750 q 206 701 214 711 q 189 690 199 690 z "},"Û":{"ha":381,"x_min":14,"x_max":367,"o":"m 292 0 q 261 25 265 0 q 249 188 254 74 q 143 0 225 0 q 14 282 14 0 q 33 553 14 389 l 39 606 q 56 650 42 635 q 85 665 69 665 q 114 650 101 665 q 126 606 126 635 l 124 543 q 118 299 118 433 q 158 47 118 47 q 206 116 188 47 q 233 269 224 185 q 242 400 242 354 q 256 606 242 533 q 285 655 265 640 q 325 669 306 669 q 354 661 342 669 q 367 640 367 653 l 365 635 q 325 131 329 482 l 322 25 q 312 6 321 13 q 292 0 303 0 m 261 690 q 244 699 251 690 q 226 725 238 708 l 194 774 l 156 715 q 142 697 147 703 q 129 690 138 690 q 113 697 121 690 q 106 711 106 703 q 131 753 106 717 l 175 819 q 196 831 185 831 q 210 822 204 831 q 244 773 217 813 q 279 722 272 733 q 283 711 283 717 q 276 697 283 703 q 261 690 269 690 z "},"Ü":{"ha":381,"x_min":14,"x_max":367,"o":"m 292 0 q 261 25 265 0 q 249 188 254 74 q 143 0 225 0 q 14 282 14 0 q 33 553 14 389 l 39 606 q 56 650 42 635 q 85 665 69 665 q 114 650 101 665 q 126 606 126 635 l 124 543 q 118 299 118 433 q 158 47 118 47 q 206 116 188 47 q 233 269 224 185 q 242 400 242 354 q 256 606 242 533 q 285 655 265 640 q 325 669 306 669 q 354 661 342 669 q 367 640 367 653 l 365 635 q 325 131 329 482 l 322 25 q 312 6 321 13 q 292 0 303 0 m 165 738 q 149 744 156 738 q 143 760 143 750 q 149 776 143 769 q 165 783 156 783 q 182 776 175 783 q 189 760 189 769 q 182 744 189 750 q 165 738 175 738 m 218 738 q 201 744 208 738 q 194 760 194 750 q 201 776 194 769 q 218 783 208 783 q 234 776 228 783 q 240 760 240 769 q 234 744 240 750 q 218 738 228 738 z "},"Ý":{"ha":322,"x_min":14,"x_max":308,"o":"m 168 0 q 115 29 133 0 q 97 100 97 58 q 114 149 97 149 q 124 139 121 149 q 171 47 140 47 q 211 297 211 47 q 131 192 190 192 q 14 422 14 192 q 24 582 14 507 l 25 606 q 43 650 29 635 q 72 665 57 665 q 100 650 88 665 q 113 606 113 635 l 111 557 q 108 429 108 499 q 144 239 108 239 q 183 285 169 239 q 201 395 196 331 q 206 515 206 460 l 203 606 q 215 650 203 635 q 244 665 228 665 q 274 650 260 665 q 290 606 288 635 l 293 569 q 308 325 308 464 q 297 169 308 244 q 255 47 285 94 q 168 0 225 0 m 149 690 q 133 697 140 690 q 126 711 126 703 q 131 722 126 717 q 165 773 138 733 q 199 822 193 813 q 214 831 206 831 q 230 824 222 831 q 238 810 238 818 q 235 800 238 806 q 214 769 228 789 q 187 731 200 750 q 166 701 174 711 q 149 690 158 690 z "},"Þ":{"ha":339,"x_min":25,"x_max":271,"o":"m 69 -46 q 39 -21 43 -46 q 29 142 33 22 q 25 390 25 261 q 40 683 25 621 q 90 714 50 714 q 127 704 110 714 q 144 681 144 694 l 144 675 q 121 522 129 615 q 233 463 196 511 q 271 356 271 414 q 229 243 271 294 q 104 182 188 192 l 101 -21 q 91 -40 100 -33 q 69 -46 82 -46 m 106 214 q 199 263 168 221 q 231 356 231 306 q 203 445 231 404 q 118 497 175 486 q 106 214 108 358 z "},"ß":{"ha":463,"x_min":72,"x_max":399,"o":"m 114 -61 q 92 -51 101 -61 q 82 -21 82 -42 l 79 21 q 72 232 72 103 q 232 665 72 665 q 338 611 303 665 q 374 492 374 557 q 356 403 374 444 q 300 339 338 361 q 374 290 350 324 q 399 219 399 257 q 359 133 399 172 q 238 90 319 94 q 219 107 219 90 q 239 122 219 122 q 328 153 299 122 q 358 222 358 185 q 328 291 358 260 q 239 322 299 322 q 224 328 229 322 q 219 339 219 333 q 239 354 219 354 q 316 399 290 354 q 342 497 342 443 q 316 596 342 551 q 239 640 290 640 q 143 121 143 640 l 144 -21 q 135 -51 144 -42 q 114 -61 125 -61 z "},"à":{"ha":283,"x_min":14,"x_max":268,"o":"m 232 0 q 213 10 221 0 q 204 39 204 19 l 204 51 q 190 192 204 101 l 82 192 q 43 7 58 22 q 29 0 36 0 q 14 25 17 0 q 61 368 14 42 l 101 644 q 115 663 104 656 q 143 669 126 669 q 183 655 163 669 q 213 606 203 640 q 250 358 232 529 q 268 86 268 188 q 266 39 268 58 q 253 10 264 19 q 232 0 243 0 m 185 233 q 128 526 161 382 q 89 233 111 394 l 185 233 m 146 690 q 133 699 139 690 q 113 727 126 707 q 84 768 99 747 q 65 797 69 789 q 60 810 60 804 q 67 824 60 818 q 82 831 74 831 q 99 819 90 831 q 140 761 108 807 l 168 721 q 171 711 171 717 q 163 697 171 703 q 146 690 156 690 z "},"á":{"ha":283,"x_min":14,"x_max":268,"o":"m 232 0 q 213 10 221 0 q 204 39 204 19 l 204 51 q 190 192 204 101 l 82 192 q 43 7 58 22 q 29 0 36 0 q 14 25 17 0 q 61 368 14 42 l 101 644 q 115 663 104 656 q 143 669 126 669 q 183 655 163 669 q 213 606 203 640 q 250 358 232 529 q 268 86 268 188 q 266 39 268 58 q 253 10 264 19 q 232 0 243 0 m 185 233 q 128 526 161 382 q 89 233 111 394 l 185 233 m 150 690 q 135 697 142 690 q 128 711 128 703 q 132 722 128 717 q 167 773 139 733 q 201 822 194 813 q 215 831 207 831 q 231 824 224 831 q 239 810 239 818 q 236 800 239 806 q 215 769 229 789 q 188 731 201 750 q 167 701 175 711 q 150 690 160 690 z "},"â":{"ha":283,"x_min":14,"x_max":268,"o":"m 232 0 q 213 10 221 0 q 204 39 204 19 l 204 51 q 190 192 204 101 l 82 192 q 43 7 58 22 q 29 0 36 0 q 14 25 17 0 q 61 368 14 42 l 101 644 q 115 663 104 656 q 143 669 126 669 q 183 655 163 669 q 213 606 203 640 q 250 358 232 529 q 268 86 268 188 q 266 39 268 58 q 253 10 264 19 q 232 0 243 0 m 185 233 q 128 526 161 382 q 89 233 111 394 l 185 233 m 207 690 q 190 701 197 690 q 167 732 182 711 q 140 774 153 753 l 103 718 q 87 697 92 704 q 75 690 82 690 q 59 697 67 690 q 51 711 51 703 q 54 721 51 715 l 121 819 q 142 831 131 831 q 156 822 150 831 q 190 773 163 813 q 225 722 218 733 q 229 711 229 717 q 222 697 229 703 q 207 690 215 690 z "},"ã":{"ha":283,"x_min":14,"x_max":268,"o":"m 232 0 q 213 10 221 0 q 204 39 204 19 l 204 51 q 190 192 204 101 l 82 192 q 43 7 58 22 q 29 0 36 0 q 14 25 17 0 q 61 368 14 42 l 101 644 q 115 663 104 656 q 143 669 126 669 q 183 655 163 669 q 213 606 203 640 q 250 358 232 529 q 268 86 268 188 q 266 39 268 58 q 253 10 264 19 q 232 0 243 0 m 185 233 q 128 526 161 382 q 89 233 111 394 l 185 233 m 89 724 q 83 729 86 724 q 81 742 81 735 q 86 758 81 750 q 135 786 106 786 q 164 782 150 786 q 188 778 178 778 q 207 792 200 778 q 210 796 208 796 q 211 789 211 796 q 205 762 211 779 q 185 735 199 744 q 171 731 178 731 q 148 737 160 731 q 122 743 136 743 q 93 726 108 743 q 89 724 92 724 z "},"ä":{"ha":283,"x_min":14,"x_max":268,"o":"m 232 0 q 213 10 221 0 q 204 39 204 19 l 204 51 q 190 192 204 101 l 82 192 q 43 7 58 22 q 29 0 36 0 q 14 25 17 0 q 61 368 14 42 l 101 644 q 115 663 104 656 q 143 669 126 669 q 183 655 163 669 q 213 606 203 640 q 250 358 232 529 q 268 86 268 188 q 266 39 268 58 q 253 10 264 19 q 232 0 243 0 m 185 233 q 128 526 161 382 q 89 233 111 394 l 185 233 m 126 738 q 110 744 117 738 q 104 760 104 750 q 110 776 104 769 q 126 783 117 783 q 143 776 136 783 q 150 760 150 769 q 143 744 150 750 q 126 738 136 738 m 179 738 q 163 744 169 738 q 156 760 156 750 q 163 776 156 769 q 179 783 169 783 q 195 776 189 783 q 201 760 201 769 q 195 744 201 750 q 179 738 189 738 z "},"å":{"ha":283,"x_min":14,"x_max":268,"o":"m 232 0 q 213 10 221 0 q 204 39 204 19 l 204 51 q 190 192 204 101 l 82 192 q 43 7 58 22 q 29 0 36 0 q 14 25 17 0 q 61 368 14 42 l 101 644 q 115 663 104 656 q 143 669 126 669 q 183 655 163 669 q 213 606 203 640 q 250 358 232 529 q 268 86 268 188 q 266 39 268 58 q 253 10 264 19 q 232 0 243 0 m 185 233 q 128 526 161 382 q 89 233 111 394 l 185 233 m 149 725 q 123 735 133 725 q 113 760 113 746 q 123 785 113 775 q 149 796 133 796 q 174 785 164 796 q 185 760 185 775 q 174 735 185 746 q 149 725 164 725 m 149 750 q 160 760 160 750 q 149 771 160 771 q 138 760 138 771 q 149 750 138 750 z "},"æ":{"ha":440,"x_min":14,"x_max":425,"o":"m 256 -4 q 215 8 225 -4 q 204 40 204 21 l 204 51 q 190 192 204 101 l 82 192 q 43 7 58 22 q 29 0 36 0 q 14 25 17 0 q 61 368 14 42 l 101 644 q 116 663 104 656 q 143 669 128 669 q 208 621 188 669 q 292 681 226 681 q 408 653 335 681 q 425 631 425 644 q 419 616 425 622 q 404 610 414 610 q 365 616 397 610 q 313 625 332 622 q 276 233 281 488 l 339 233 q 356 214 356 233 q 351 199 356 206 q 339 192 347 192 l 275 192 l 272 56 l 358 71 q 375 65 369 71 q 381 50 381 58 q 364 28 381 36 l 351 24 q 256 -4 285 -4 m 185 233 q 128 526 161 382 q 89 233 111 394 l 185 233 z "},"ç":{"ha":267,"x_min":14,"x_max":253,"o":"m 181 -100 q 143 -85 158 -100 q 128 -47 128 -69 q 133 -35 128 -40 q 144 -31 138 -31 q 156 -35 151 -31 q 161 -48 161 -40 q 167 -61 161 -56 q 181 -67 172 -67 q 195 -61 189 -67 q 201 -47 201 -56 q 195 -33 201 -39 q 181 -28 189 -28 l 164 -31 q 150 -22 156 -31 q 149 -15 149 -19 q 152 -5 149 -10 q 158 1 156 0 q 163 3 161 1 q 51 119 89 21 q 14 333 14 217 q 33 492 14 415 q 89 617 51 568 q 183 665 126 665 q 235 636 217 665 q 253 564 253 607 q 238 515 253 515 q 226 525 229 515 q 179 618 213 618 q 125 526 143 618 q 107 325 107 435 q 125 124 107 215 q 179 32 143 32 q 222 100 203 32 q 233 113 226 113 q 242 99 240 113 q 230 42 240 69 q 197 3 219 14 q 233 -47 233 -11 q 218 -85 233 -69 q 181 -100 203 -100 z "},"è":{"ha":263,"x_min":14,"x_max":249,"o":"m 78 -3 q 33 43 39 -3 q 20 198 26 89 q 14 414 14 307 q 28 606 14 538 q 115 681 42 681 q 232 653 158 681 q 249 631 249 644 q 242 616 249 622 q 226 610 236 610 l 221 610 l 136 625 q 99 233 106 493 l 161 233 q 179 214 179 233 q 174 199 179 206 q 161 192 169 192 l 99 192 l 96 56 l 176 71 l 181 71 q 198 64 192 71 q 204 49 204 57 q 188 28 204 36 l 168 21 q 78 -3 115 -3 m 157 690 q 143 699 149 690 q 123 727 138 707 q 94 767 108 747 q 75 796 81 788 q 69 810 69 804 q 76 824 69 818 q 92 831 83 831 q 110 819 101 831 q 150 761 118 807 l 178 721 q 181 711 181 715 q 173 697 181 703 q 157 690 165 690 z "},"é":{"ha":263,"x_min":14,"x_max":249,"o":"m 78 -3 q 33 43 39 -3 q 20 198 26 89 q 14 414 14 307 q 28 606 14 538 q 115 681 42 681 q 232 653 158 681 q 249 631 249 644 q 242 616 249 622 q 226 610 236 610 l 221 610 l 136 625 q 99 233 106 493 l 161 233 q 179 214 179 233 q 174 199 179 206 q 161 192 169 192 l 99 192 l 96 56 l 176 71 l 181 71 q 198 64 192 71 q 204 49 204 57 q 188 28 204 36 l 168 21 q 78 -3 115 -3 m 126 690 q 111 697 118 690 q 104 711 104 703 q 108 722 104 717 q 143 773 115 733 q 177 822 171 813 q 192 831 183 831 q 208 824 200 831 q 215 810 215 818 q 213 800 215 806 q 192 769 206 789 q 165 731 178 750 q 144 701 151 711 q 126 690 136 690 z "},"ê":{"ha":263,"x_min":14,"x_max":249,"o":"m 78 -3 q 33 43 39 -3 q 20 198 26 89 q 14 414 14 307 q 28 606 14 538 q 115 681 42 681 q 232 653 158 681 q 249 631 249 644 q 242 616 249 622 q 226 610 236 610 l 221 610 l 136 625 q 99 233 106 493 l 161 233 q 179 214 179 233 q 174 199 179 206 q 161 192 169 192 l 99 192 l 96 56 l 176 71 l 181 71 q 198 64 192 71 q 204 49 204 57 q 188 28 204 36 l 168 21 q 78 -3 115 -3 m 214 690 q 197 699 204 690 q 179 725 190 708 l 147 774 l 108 715 q 95 697 100 703 q 82 690 90 690 q 66 697 74 690 q 58 711 58 703 q 83 753 58 717 l 128 819 l 129 819 q 149 831 136 831 q 163 822 157 831 q 197 773 169 813 q 232 722 225 733 q 236 711 236 717 q 229 697 236 703 q 214 690 222 690 z "},"ë":{"ha":263,"x_min":14,"x_max":249,"o":"m 78 -3 q 33 43 39 -3 q 20 198 26 89 q 14 414 14 307 q 28 606 14 538 q 115 681 42 681 q 232 653 158 681 q 249 631 249 644 q 242 616 249 622 q 226 610 236 610 l 221 610 l 136 625 q 99 233 106 493 l 161 233 q 179 214 179 233 q 174 199 179 206 q 161 192 169 192 l 99 192 l 96 56 l 176 71 l 181 71 q 198 64 192 71 q 204 49 204 57 q 188 28 204 36 l 168 21 q 78 -3 115 -3 m 124 738 q 108 744 114 738 q 101 760 101 750 q 108 776 101 769 q 124 783 114 783 q 140 776 133 783 q 147 760 147 769 q 140 744 147 750 q 124 738 133 738 m 176 738 q 160 744 167 738 q 153 760 153 750 q 160 776 153 769 q 176 783 167 783 q 193 776 186 783 q 200 760 200 769 q 193 744 200 750 q 176 738 186 738 z "},"ì":{"ha":153,"x_min":14,"x_max":139,"o":"m 64 0 q 32 25 36 0 q 20 186 26 74 q 14 408 14 299 q 28 606 14 538 q 58 655 38 640 q 97 669 78 669 q 126 661 114 669 q 139 640 139 653 l 138 635 q 97 131 101 482 l 94 25 q 84 6 93 13 q 64 0 75 0 m 106 690 q 92 699 99 690 q 72 727 86 707 q 44 767 58 747 q 24 796 29 788 q 19 810 19 804 q 26 824 19 818 q 42 831 33 831 q 58 821 51 831 l 126 721 q 129 711 129 715 q 122 697 129 703 q 106 690 114 690 z "},"í":{"ha":201,"x_min":14,"x_max":186,"o":"m 64 0 q 32 25 36 0 q 20 186 26 74 q 14 408 14 299 q 28 606 14 538 q 58 655 38 640 q 97 669 78 669 q 126 661 114 669 q 139 640 139 653 l 138 635 q 97 131 101 482 l 94 25 q 84 6 93 13 q 64 0 75 0 m 99 690 q 83 696 90 690 q 76 711 76 701 q 82 725 76 717 q 115 773 88 733 q 148 822 142 813 q 163 831 154 831 q 178 824 171 831 q 186 810 186 818 q 183 800 186 806 q 163 769 176 789 q 135 731 149 750 q 115 701 122 711 q 99 690 107 690 z "},"î":{"ha":207,"x_min":14,"x_max":192,"o":"m 81 0 q 50 25 54 0 q 38 186 43 74 q 32 410 32 299 q 44 606 32 538 q 74 655 54 640 q 115 669 94 669 q 144 661 132 669 q 156 640 156 653 l 156 635 q 114 111 117 474 l 113 25 q 102 6 111 13 q 81 0 93 0 m 169 690 q 154 699 161 690 l 103 774 l 64 715 q 51 697 56 703 q 38 690 46 690 q 22 697 29 690 q 14 711 14 703 q 17 721 14 715 l 63 788 q 84 819 76 807 q 106 831 92 831 q 119 824 114 831 q 133 803 124 817 q 153 773 143 789 q 174 743 164 757 q 188 723 183 729 q 192 711 192 717 q 185 696 192 701 q 169 690 178 690 z "},"ï":{"ha":161,"x_min":14,"x_max":147,"o":"m 64 0 q 32 25 36 0 q 20 186 26 74 q 14 408 14 299 q 28 606 14 538 q 58 655 38 640 q 97 669 78 669 q 126 661 114 669 q 139 640 139 653 l 138 635 q 97 131 101 482 l 94 25 q 84 6 93 13 q 64 0 75 0 m 72 738 q 56 744 63 738 q 49 760 49 750 q 56 776 49 769 q 72 783 63 783 q 89 776 82 783 q 96 760 96 769 q 89 744 96 750 q 72 738 82 738 m 124 738 q 107 744 114 738 q 100 760 100 750 q 107 776 100 769 q 124 783 114 783 q 140 776 133 783 q 147 760 147 769 q 140 744 147 750 q 124 738 133 738 z "},"ñ":{"ha":353,"x_min":14,"x_max":339,"o":"m 267 0 q 245 10 256 0 q 232 40 235 19 l 231 68 l 229 75 q 119 543 197 224 q 94 93 94 357 l 94 39 q 86 10 94 19 q 67 0 78 0 q 45 10 56 0 q 32 40 35 19 q 20 198 26 89 q 14 414 14 307 q 28 606 14 538 q 58 655 38 640 q 97 669 78 669 q 124 663 113 669 q 138 644 135 657 q 165 529 142 631 q 215 307 188 428 l 214 403 q 228 606 214 533 q 258 655 238 640 q 297 669 278 669 q 326 661 314 669 q 339 640 339 653 l 338 635 q 294 92 294 453 l 294 39 q 286 10 294 19 q 267 0 278 0 m 139 724 q 133 729 136 724 q 131 742 131 735 q 135 758 131 750 q 183 786 154 786 q 213 782 200 786 q 236 778 226 778 q 256 792 249 778 q 258 796 257 796 q 260 789 260 796 q 253 762 260 779 q 233 735 247 744 q 219 731 226 731 q 197 737 208 731 q 172 743 185 743 q 143 726 158 743 q 139 724 142 724 z "},"ò":{"ha":340,"x_min":14,"x_max":326,"o":"m 183 0 q 89 49 126 0 q 33 174 51 97 q 14 333 14 250 q 33 492 14 415 q 89 617 51 568 q 183 665 126 665 q 263 617 231 665 q 310 492 294 568 q 326 333 326 415 q 310 174 326 250 q 263 49 294 97 q 183 0 231 0 m 179 32 q 227 124 211 32 q 243 325 243 215 q 227 526 243 435 q 179 618 211 618 q 125 526 143 618 q 107 325 107 435 q 125 124 107 215 q 179 32 143 32 m 182 690 q 167 699 174 690 q 133 747 161 707 q 100 796 106 788 q 94 810 94 804 q 101 824 94 818 q 117 831 108 831 q 135 819 126 831 q 175 761 143 807 l 203 721 q 206 711 206 715 q 198 697 206 703 q 182 690 190 690 z "},"ó":{"ha":340,"x_min":14,"x_max":326,"o":"m 183 0 q 89 49 126 0 q 33 174 51 97 q 14 333 14 250 q 33 492 14 415 q 89 617 51 568 q 183 665 126 665 q 263 617 231 665 q 310 492 294 568 q 326 333 326 415 q 310 174 326 250 q 263 49 294 97 q 183 0 231 0 m 179 32 q 227 124 211 32 q 243 325 243 215 q 227 526 243 435 q 179 618 211 618 q 125 526 143 618 q 107 325 107 435 q 125 124 107 215 q 179 32 143 32 m 192 690 q 176 696 183 690 q 169 711 169 701 q 175 725 169 717 q 208 773 181 733 q 241 822 235 813 q 256 831 247 831 q 272 824 264 831 q 279 810 279 818 q 276 800 279 806 q 256 769 269 789 q 228 731 242 750 q 208 701 215 711 q 192 690 200 690 z "},"ô":{"ha":340,"x_min":14,"x_max":326,"o":"m 183 0 q 89 49 126 0 q 33 174 51 97 q 14 333 14 250 q 33 492 14 415 q 89 617 51 568 q 183 665 126 665 q 263 617 231 665 q 310 492 294 568 q 326 333 326 415 q 310 174 326 250 q 263 49 294 97 q 183 0 231 0 m 179 32 q 227 124 211 32 q 243 325 243 215 q 227 526 243 435 q 179 618 211 618 q 125 526 143 618 q 107 325 107 435 q 125 124 107 215 q 179 32 143 32 m 251 690 q 234 701 242 690 q 213 732 226 711 q 185 774 199 753 l 146 715 q 133 697 138 703 q 119 690 128 690 q 103 697 111 690 q 96 711 96 703 q 99 721 96 715 l 144 788 q 166 819 158 807 q 188 831 174 831 q 199 824 194 831 q 210 808 204 818 l 243 761 q 274 711 274 718 q 267 697 274 703 q 251 690 260 690 z "},"õ":{"ha":340,"x_min":14,"x_max":326,"o":"m 183 0 q 89 49 126 0 q 33 174 51 97 q 14 333 14 250 q 33 492 14 415 q 89 617 51 568 q 183 665 126 665 q 263 617 231 665 q 310 492 294 568 q 326 333 326 415 q 310 174 326 250 q 263 49 294 97 q 183 0 231 0 m 179 32 q 227 124 211 32 q 243 325 243 215 q 227 526 243 435 q 179 618 211 618 q 125 526 143 618 q 107 325 107 435 q 125 124 107 215 q 179 32 143 32 m 122 724 q 117 730 119 724 q 114 743 114 736 q 118 758 114 750 q 167 786 138 786 q 197 782 183 786 q 219 778 210 778 q 240 792 233 778 q 243 796 242 796 q 244 789 244 796 q 238 762 244 779 q 218 735 232 744 q 204 731 211 731 q 181 737 193 731 q 156 743 169 743 q 126 726 142 743 q 122 724 125 724 z "},"ö":{"ha":340,"x_min":14,"x_max":326,"o":"m 183 0 q 89 49 126 0 q 33 174 51 97 q 14 333 14 250 q 33 492 14 415 q 89 617 51 568 q 183 665 126 665 q 263 617 231 665 q 310 492 294 568 q 326 333 326 415 q 310 174 326 250 q 263 49 294 97 q 183 0 231 0 m 179 32 q 227 124 211 32 q 243 325 243 215 q 227 526 243 435 q 179 618 211 618 q 125 526 143 618 q 107 325 107 435 q 125 124 107 215 q 179 32 143 32 m 157 738 q 141 744 147 738 q 135 760 135 750 q 141 776 135 769 q 157 783 147 783 q 174 776 167 783 q 181 760 181 769 q 174 744 181 750 q 157 738 167 738 m 210 738 q 193 744 200 738 q 186 760 186 750 q 193 776 186 769 q 210 783 200 783 q 226 776 219 783 q 233 760 233 769 q 226 744 233 750 q 210 738 219 738 z "},"÷":{"ha":203,"x_min":21,"x_max":181,"o":"m 164 322 l 42 322 q 26 328 32 322 q 21 343 21 335 q 26 358 21 351 q 42 364 32 364 l 164 364 q 181 344 181 364 q 176 329 181 336 q 164 322 172 322 m 101 400 q 80 409 89 400 q 71 431 71 418 q 80 452 71 443 q 101 461 89 461 q 122 452 114 461 q 131 431 131 443 q 122 409 131 418 q 101 400 114 400 m 101 225 q 80 234 89 225 q 71 256 71 243 q 80 277 71 268 q 101 286 89 286 q 122 277 114 286 q 131 256 131 268 q 122 234 131 243 q 101 225 114 225 z "},"ø":{"ha":340,"x_min":14,"x_max":325,"o":"m 117 -42 q 102 -37 108 -42 q 96 -24 96 -32 q 104 33 97 -7 q 36 160 58 78 q 14 333 14 242 q 33 492 14 417 q 89 617 51 568 q 183 665 126 665 q 207 661 196 665 q 211 690 210 679 q 213 704 213 700 q 220 711 214 708 q 233 714 226 714 q 247 710 240 714 q 254 697 254 706 q 251 672 254 688 q 244 636 247 656 q 305 509 285 593 q 325 331 325 425 q 310 173 325 249 q 263 49 294 97 q 183 0 231 0 q 142 8 161 0 l 136 -25 q 117 -42 133 -42 m 121 140 l 197 607 q 179 618 190 618 q 124 526 143 618 q 106 325 106 435 q 121 140 106 226 m 179 32 q 227 123 211 32 q 243 324 243 214 q 226 526 243 435 l 150 54 q 179 32 163 32 z "},"ù":{"ha":381,"x_min":14,"x_max":367,"o":"m 292 0 q 261 25 265 0 q 249 188 254 74 q 143 0 225 0 q 14 282 14 0 q 33 553 14 389 l 39 606 q 56 650 42 635 q 85 665 69 665 q 114 650 101 665 q 126 606 126 635 l 124 543 q 118 299 118 433 q 158 47 118 47 q 206 116 188 47 q 233 269 224 185 q 242 400 242 354 q 256 606 242 533 q 285 655 265 640 q 325 669 306 669 q 354 661 342 669 q 367 640 367 653 l 365 635 q 325 131 329 482 l 322 25 q 312 6 321 13 q 292 0 303 0 m 196 690 q 181 699 188 690 q 161 727 175 707 q 133 767 147 747 q 113 796 118 788 q 108 810 108 804 q 115 824 108 818 q 131 831 122 831 q 149 819 140 831 q 189 761 157 807 l 217 721 q 219 711 219 715 q 212 697 219 703 q 196 690 204 690 z "},"ú":{"ha":381,"x_min":14,"x_max":367,"o":"m 292 0 q 261 25 265 0 q 249 188 254 74 q 143 0 225 0 q 14 282 14 0 q 33 553 14 389 l 39 606 q 56 650 42 635 q 85 665 69 665 q 114 650 101 665 q 126 606 126 635 l 124 543 q 118 299 118 433 q 158 47 118 47 q 206 116 188 47 q 233 269 224 185 q 242 400 242 354 q 256 606 242 533 q 285 655 265 640 q 325 669 306 669 q 354 661 342 669 q 367 640 367 653 l 365 635 q 325 131 329 482 l 322 25 q 312 6 321 13 q 292 0 303 0 m 189 690 q 174 697 181 690 q 167 711 167 703 q 171 722 167 717 l 240 824 q 253 831 246 831 q 270 824 263 831 q 278 810 278 818 q 275 800 278 804 q 254 769 268 789 q 227 731 240 750 q 206 701 214 711 q 189 690 199 690 z "},"û":{"ha":381,"x_min":14,"x_max":367,"o":"m 292 0 q 261 25 265 0 q 249 188 254 74 q 143 0 225 0 q 14 282 14 0 q 33 553 14 389 l 39 606 q 56 650 42 635 q 85 665 69 665 q 114 650 101 665 q 126 606 126 635 l 124 543 q 118 299 118 433 q 158 47 118 47 q 206 116 188 47 q 233 269 224 185 q 242 400 242 354 q 256 606 242 533 q 285 655 265 640 q 325 669 306 669 q 354 661 342 669 q 367 640 367 653 l 365 635 q 325 131 329 482 l 322 25 q 312 6 321 13 q 292 0 303 0 m 261 690 q 244 699 251 690 q 226 725 238 708 l 194 774 l 156 715 q 142 697 147 703 q 129 690 138 690 q 113 697 121 690 q 106 711 106 703 q 131 753 106 717 l 175 819 q 196 831 185 831 q 210 822 204 831 q 244 773 217 813 q 279 722 272 733 q 283 711 283 717 q 276 697 283 703 q 261 690 269 690 z "},"ü":{"ha":381,"x_min":14,"x_max":367,"o":"m 292 0 q 261 25 265 0 q 249 188 254 74 q 143 0 225 0 q 14 282 14 0 q 33 553 14 389 l 39 606 q 56 650 42 635 q 85 665 69 665 q 114 650 101 665 q 126 606 126 635 l 124 543 q 118 299 118 433 q 158 47 118 47 q 206 116 188 47 q 233 269 224 185 q 242 400 242 354 q 256 606 242 533 q 285 655 265 640 q 325 669 306 669 q 354 661 342 669 q 367 640 367 653 l 365 635 q 325 131 329 482 l 322 25 q 312 6 321 13 q 292 0 303 0 m 165 738 q 149 744 156 738 q 143 760 143 750 q 149 776 143 769 q 165 783 156 783 q 182 776 175 783 q 189 760 189 769 q 182 744 189 750 q 165 738 175 738 m 218 738 q 201 744 208 738 q 194 760 194 750 q 201 776 194 769 q 218 783 208 783 q 234 776 228 783 q 240 760 240 769 q 234 744 240 750 q 218 738 228 738 z "},"ý":{"ha":322,"x_min":14,"x_max":308,"o":"m 168 0 q 115 29 133 0 q 97 100 97 58 q 114 149 97 149 q 124 139 121 149 q 171 47 140 47 q 211 297 211 47 q 131 192 190 192 q 14 422 14 192 q 24 582 14 507 l 25 606 q 43 650 29 635 q 72 665 57 665 q 100 650 88 665 q 113 606 113 635 l 111 557 q 108 429 108 499 q 144 239 108 239 q 183 285 169 239 q 201 395 196 331 q 206 515 206 460 l 203 606 q 215 650 203 635 q 244 665 228 665 q 274 650 260 665 q 290 606 288 635 l 293 569 q 308 325 308 464 q 297 169 308 244 q 255 47 285 94 q 168 0 225 0 m 149 690 q 133 697 140 690 q 126 711 126 703 q 131 722 126 717 q 165 773 138 733 q 199 822 193 813 q 214 831 206 831 q 230 824 222 831 q 238 810 238 818 q 235 800 238 806 q 214 769 228 789 q 187 731 200 750 q 166 701 174 711 q 149 690 158 690 z "},"þ":{"ha":314,"x_min":25,"x_max":253,"o":"m 69 -46 q 39 -21 43 -46 q 29 142 33 22 q 25 390 25 261 q 40 683 25 621 q 90 714 50 714 q 127 704 110 714 q 144 681 144 694 l 144 675 q 118 483 126 601 q 219 439 185 475 q 253 358 253 403 q 216 276 253 314 q 106 229 179 238 l 101 -21 q 91 -40 100 -33 q 69 -46 82 -46 m 107 261 q 186 296 160 267 q 213 361 213 325 q 188 423 213 394 q 115 460 164 451 q 107 261 110 361 z "},"ÿ":{"ha":322,"x_min":14,"x_max":308,"o":"m 168 0 q 115 29 133 0 q 97 100 97 58 q 114 149 97 149 q 124 139 121 149 q 171 47 140 47 q 211 297 211 47 q 131 192 190 192 q 14 422 14 192 q 24 582 14 507 l 25 606 q 43 650 29 635 q 72 665 57 665 q 100 650 88 665 q 113 606 113 635 l 111 557 q 108 429 108 499 q 144 239 108 239 q 183 285 169 239 q 201 395 196 331 q 206 515 206 460 l 203 606 q 215 650 203 635 q 244 665 228 665 q 274 650 260 665 q 290 606 288 635 l 293 569 q 308 325 308 464 q 297 169 308 244 q 255 47 285 94 q 168 0 225 0 m 135 738 q 118 744 125 738 q 111 760 111 750 q 118 776 111 769 q 135 783 125 783 q 151 776 144 783 q 158 760 158 769 q 151 744 158 750 q 135 738 144 738 m 186 738 q 170 744 176 738 q 164 760 164 750 q 170 776 164 769 q 186 783 176 783 q 203 776 196 783 q 210 760 210 769 q 203 744 210 750 q 186 738 196 738 z "},"Œ":{"ha":490,"x_min":14,"x_max":476,"o":"m 306 -3 q 274 8 288 -3 q 260 46 260 19 q 183 0 229 0 q 89 49 126 0 q 33 174 51 97 q 14 333 14 250 q 33 492 14 415 q 89 617 51 568 q 183 665 126 665 q 258 621 228 665 q 342 681 278 681 q 460 653 385 681 q 476 631 476 644 q 470 616 476 622 q 454 610 464 610 l 449 610 q 363 625 393 621 q 326 233 333 497 l 389 233 q 406 214 406 233 q 401 199 406 206 q 389 192 397 192 l 326 192 l 322 56 l 404 71 l 408 71 q 426 64 419 71 q 432 49 432 57 q 415 28 432 36 l 396 21 q 306 -3 343 -3 m 179 32 q 227 124 211 32 q 243 325 243 215 q 242 382 242 353 q 223 549 239 479 q 179 618 207 618 q 125 526 143 618 q 107 325 107 435 q 125 124 107 215 q 179 32 143 32 z "},"œ":{"ha":490,"x_min":14,"x_max":476,"o":"m 306 -3 q 274 8 288 -3 q 260 46 260 19 q 183 0 229 0 q 89 49 126 0 q 33 174 51 97 q 14 333 14 250 q 33 492 14 415 q 89 617 51 568 q 183 665 126 665 q 258 621 228 665 q 342 681 278 681 q 460 653 385 681 q 476 631 476 644 q 470 616 476 622 q 454 610 464 610 l 449 610 q 363 625 393 621 q 326 233 333 497 l 389 233 q 406 214 406 233 q 401 199 406 206 q 389 192 397 192 l 326 192 l 322 56 l 404 71 l 408 71 q 426 64 419 71 q 432 49 432 57 q 415 28 432 36 l 396 21 q 306 -3 343 -3 m 179 32 q 227 124 211 32 q 243 325 243 215 q 242 382 242 353 q 223 549 239 479 q 179 618 207 618 q 125 526 143 618 q 107 325 107 435 q 125 124 107 215 q 179 32 143 32 z "},"Š":{"ha":285,"x_min":14,"x_max":269,"o":"m 169 0 q 110 24 126 1 q 93 75 93 47 q 102 122 93 100 q 125 157 111 144 q 136 161 131 161 q 146 151 146 161 q 143 143 146 147 q 125 89 125 115 q 133 51 125 68 q 167 31 146 31 q 190 68 190 31 q 118 211 190 136 q 56 296 85 249 q 14 450 14 363 q 63 606 14 546 q 179 665 113 665 q 268 538 268 665 q 254 438 268 486 q 211 363 233 363 q 197 375 197 363 q 200 385 197 379 q 228 456 218 413 q 238 538 238 499 q 229 594 238 571 q 203 618 221 618 q 131 560 160 618 q 103 435 103 501 q 126 336 103 381 q 190 256 157 290 q 246 188 222 222 q 269 101 269 153 q 260 57 269 81 q 229 17 251 33 q 169 0 207 0 m 171 690 q 156 699 163 690 q 122 747 150 707 q 89 796 94 788 q 83 810 83 804 q 90 824 83 818 q 106 831 97 831 q 122 821 115 831 q 140 794 129 811 l 172 747 l 188 769 q 224 822 217 813 q 238 831 231 831 q 253 824 246 831 q 261 810 261 818 q 236 768 261 804 l 192 701 q 171 690 182 690 z "},"š":{"ha":285,"x_min":14,"x_max":269,"o":"m 169 0 q 110 24 126 1 q 93 75 93 47 q 102 122 93 100 q 125 157 111 144 q 136 161 131 161 q 146 151 146 161 q 143 143 146 147 q 125 89 125 115 q 133 51 125 68 q 167 31 146 31 q 190 68 190 31 q 118 211 190 136 q 56 296 85 249 q 14 450 14 363 q 63 606 14 546 q 179 665 113 665 q 268 538 268 665 q 254 438 268 486 q 211 363 233 363 q 197 375 197 363 q 200 385 197 379 q 228 456 218 413 q 238 538 238 499 q 229 594 238 571 q 203 618 221 618 q 131 560 160 618 q 103 435 103 501 q 126 336 103 381 q 190 256 157 290 q 246 188 222 222 q 269 101 269 153 q 260 57 269 81 q 229 17 251 33 q 169 0 207 0 m 171 690 q 156 699 163 690 q 122 747 150 707 q 89 796 94 788 q 83 810 83 804 q 90 824 83 818 q 106 831 97 831 q 122 821 115 831 q 140 794 129 811 l 172 747 l 188 769 q 224 822 217 813 q 238 831 231 831 q 253 824 246 831 q 261 810 261 818 q 236 768 261 804 l 192 701 q 171 690 182 690 z "},"Ÿ":{"ha":322,"x_min":14,"x_max":308,"o":"m 168 0 q 115 29 133 0 q 97 100 97 58 q 114 149 97 149 q 124 139 121 149 q 171 47 140 47 q 211 297 211 47 q 131 192 190 192 q 14 422 14 192 q 24 582 14 507 l 25 606 q 43 650 29 635 q 72 665 57 665 q 100 650 88 665 q 113 606 113 635 l 111 557 q 108 429 108 499 q 144 239 108 239 q 183 285 169 239 q 201 395 196 331 q 206 515 206 460 l 203 606 q 215 650 203 635 q 244 665 228 665 q 274 650 260 665 q 290 606 288 635 l 293 569 q 308 325 308 464 q 297 169 308 244 q 255 47 285 94 q 168 0 225 0 m 135 738 q 118 744 125 738 q 111 760 111 750 q 118 776 111 769 q 135 783 125 783 q 151 776 144 783 q 158 760 158 769 q 151 744 158 750 q 135 738 144 738 m 186 738 q 170 744 176 738 q 164 760 164 750 q 170 776 164 769 q 186 783 176 783 q 203 776 196 783 q 210 760 210 769 q 203 744 210 750 q 186 738 196 738 z "},"ž":{"ha":282,"x_min":14,"x_max":267,"o":"m 57 -3 q 14 24 18 -3 q 42 121 14 35 q 168 607 144 440 l 85 592 l 81 592 q 64 598 69 592 q 58 613 58 604 q 74 635 58 625 q 192 669 143 669 q 257 631 233 669 l 260 625 q 267 589 267 611 q 232 433 265 538 q 93 57 172 246 l 167 71 l 171 71 q 188 65 182 71 q 193 50 193 58 q 178 28 193 38 q 57 -3 104 -3 m 165 690 q 151 699 157 690 q 131 727 144 707 q 102 767 117 747 q 83 796 88 788 q 78 810 78 804 q 85 824 78 818 q 100 831 92 831 q 117 821 110 831 q 135 794 124 811 l 167 747 q 196 790 181 768 q 217 822 211 813 q 232 831 224 831 q 248 824 240 831 q 256 810 256 818 q 253 800 256 806 l 207 733 q 185 702 193 714 q 165 690 178 690 z "},"ˇ":{"ha":228,"x_min":25,"x_max":203,"o":"m 111 685 q 97 692 103 685 q 78 721 92 700 q 49 762 64 742 q 30 790 35 782 q 25 803 25 797 q 32 818 25 813 q 47 824 39 824 q 64 813 56 824 q 86 782 72 803 q 114 742 100 761 q 143 785 128 763 q 165 815 158 807 q 178 824 171 824 q 195 818 188 824 q 203 804 203 813 q 200 794 203 799 q 132 696 160 735 q 111 685 125 685 z "},"˙":{"ha":75,"x_min":14,"x_max":61,"o":"m 38 731 q 21 738 28 731 q 14 754 14 744 q 21 771 14 764 q 38 778 28 778 q 54 771 47 778 q 61 754 61 764 q 54 738 61 744 q 38 731 47 731 z "},"˚":{"ha":100,"x_min":14,"x_max":86,"o":"m 50 718 q 24 729 35 718 q 14 754 14 740 q 24 780 14 769 q 50 790 35 790 q 76 780 65 790 q 86 754 86 769 q 76 729 86 740 q 50 718 65 718 m 50 743 q 61 754 61 743 q 50 765 61 765 q 39 754 39 765 q 50 743 39 743 z "},"˜":{"ha":168,"x_min":21,"x_max":151,"o":"m 29 718 q 24 724 26 718 q 21 738 21 729 q 25 751 21 744 q 74 779 44 779 q 103 776 90 779 q 126 772 117 772 q 147 786 140 772 q 150 789 149 789 q 151 783 151 789 q 145 756 151 774 q 125 728 139 738 q 113 724 118 724 q 89 731 101 724 q 63 738 76 738 q 33 721 49 738 q 29 718 32 718 z "},"˝":{"ha":183,"x_min":22,"x_max":163,"o":"m 43 678 q 29 683 36 678 q 22 697 22 689 q 36 739 22 701 l 67 821 q 83 831 72 831 q 99 826 92 831 q 107 811 107 821 q 63 692 107 806 q 43 678 56 678 m 99 678 q 85 683 92 678 q 78 697 78 689 q 92 739 78 701 l 122 821 q 139 831 128 831 q 155 826 147 831 q 163 811 163 821 q 118 692 163 806 q 99 678 111 678 z "},"̂":{"ha":228,"x_min":25,"x_max":203,"o":"m 181 685 q 165 694 172 685 q 143 725 157 704 q 114 767 129 746 l 63 692 q 49 685 57 685 q 33 691 40 685 q 25 706 25 697 q 28 715 25 710 l 96 814 q 117 825 103 825 q 131 816 125 825 q 152 785 138 807 q 180 744 167 764 q 198 718 193 725 q 203 706 203 711 q 196 690 203 696 q 181 685 189 685 z "},"–":{"ha":219,"x_min":21,"x_max":199,"o":"m 181 322 l 42 322 q 26 328 32 322 q 21 343 21 335 q 26 358 21 351 q 42 364 32 364 l 181 364 q 199 344 199 364 q 194 329 199 336 q 181 322 189 322 z "},"—":{"ha":275,"x_min":21,"x_max":253,"o":"m 236 322 l 42 322 q 26 328 32 322 q 21 343 21 335 q 26 358 21 351 q 42 364 32 364 l 236 364 q 253 344 253 364 q 249 329 253 336 q 236 322 244 322 z "},"‘":{"ha":104,"x_min":15,"x_max":74,"o":"m 51 582 q 15 654 15 582 q 19 717 15 689 q 35 733 22 733 q 45 729 40 733 q 50 717 50 725 q 56 674 50 703 q 71 622 63 646 q 74 606 74 614 q 67 588 74 594 q 51 582 60 582 z "},"’":{"ha":104,"x_min":29,"x_max":89,"o":"m 68 582 q 58 586 63 582 q 54 599 54 590 q 48 642 54 614 q 32 693 42 669 q 29 708 29 701 q 36 727 29 721 q 53 733 43 733 q 89 664 89 733 q 83 599 89 628 q 68 582 81 582 z "},"‚":{"ha":104,"x_min":29,"x_max":89,"o":"m 68 -76 q 58 -72 63 -76 q 54 -58 54 -67 q 48 -16 54 -43 q 32 35 42 11 q 29 50 29 43 q 36 69 29 63 q 53 75 43 75 q 89 6 89 75 q 68 -76 89 -76 z "},"“":{"ha":164,"x_min":15,"x_max":133,"o":"m 51 582 q 15 654 15 582 q 19 717 15 689 q 35 733 22 733 q 45 729 40 733 q 50 717 50 725 q 56 674 50 703 q 71 622 63 646 q 74 606 74 614 q 67 588 74 594 q 51 582 60 582 m 111 582 q 75 654 75 582 q 79 717 75 689 q 94 733 82 733 q 105 729 100 733 q 110 717 110 725 q 116 674 110 703 q 131 622 122 646 q 133 606 133 614 q 126 588 133 594 q 111 582 119 582 z "},"”":{"ha":164,"x_min":29,"x_max":149,"o":"m 68 582 q 58 586 63 582 q 54 599 54 590 q 48 642 54 614 q 32 693 42 669 q 29 708 29 701 q 36 727 29 721 q 53 733 43 733 q 89 664 89 733 q 83 599 89 628 q 68 582 81 582 m 128 582 q 118 586 122 582 q 114 599 114 590 q 108 642 114 614 q 92 693 101 669 q 89 708 89 701 q 96 727 89 721 q 113 733 103 733 q 149 664 149 733 q 143 599 149 628 q 128 582 140 582 z "},"„":{"ha":164,"x_min":29,"x_max":149,"o":"m 68 -76 q 58 -72 63 -76 q 54 -58 54 -67 q 48 -16 54 -43 q 32 35 42 11 q 29 50 29 43 q 36 69 29 63 q 53 75 43 75 q 89 6 89 75 q 68 -76 89 -76 m 128 -76 q 118 -72 122 -76 q 114 -58 114 -67 q 108 -16 114 -43 q 92 35 101 11 q 89 50 89 43 q 96 69 89 63 q 113 75 103 75 q 149 6 149 75 q 128 -76 149 -76 z "},"†":{"ha":219,"x_min":21,"x_max":199,"o":"m 113 -46 q 82 -21 86 -46 q 72 139 76 22 q 68 383 68 256 l 69 493 l 42 493 q 26 499 32 493 q 21 514 21 506 q 26 528 21 522 q 42 535 32 535 l 69 535 q 83 683 74 642 q 132 714 93 714 q 170 705 153 714 q 188 681 188 696 l 186 675 q 165 535 172 619 l 181 535 q 199 515 199 535 q 194 500 199 507 q 181 493 189 493 l 161 493 q 146 101 147 282 l 143 -21 q 133 -40 142 -33 q 113 -46 124 -46 z "},"‡":{"ha":219,"x_min":21,"x_max":199,"o":"m 113 -46 q 82 -21 86 -46 q 69 240 74 33 l 42 240 q 26 247 32 240 q 21 261 21 253 q 26 276 21 269 q 42 282 32 282 l 68 282 q 69 493 68 389 l 42 493 q 26 499 32 493 q 21 514 21 506 q 26 528 21 522 q 42 535 32 535 l 69 535 q 83 683 74 642 q 132 714 93 714 q 170 705 153 714 q 188 681 188 696 l 186 675 q 165 535 172 619 l 181 535 q 199 515 199 535 q 194 500 199 507 q 181 493 189 493 l 161 493 q 150 282 154 390 l 181 282 q 199 263 199 282 q 194 247 199 254 q 181 240 189 240 l 149 240 l 146 107 q 143 -21 146 21 q 133 -40 142 -33 q 113 -46 124 -46 z "},"•":{"ha":107,"x_min":14,"x_max":93,"o":"m 54 303 q 26 315 38 303 q 14 343 14 326 q 26 371 14 360 q 54 382 38 382 q 81 371 69 382 q 93 343 93 360 q 81 315 93 326 q 54 303 69 303 z "},"…":{"ha":221,"x_min":14,"x_max":207,"o":"m 44 0 q 23 9 32 0 q 14 31 14 18 q 23 52 14 43 q 44 61 32 61 q 66 52 57 61 q 75 31 75 43 q 66 9 75 18 q 44 0 57 0 m 111 0 q 90 9 99 0 q 81 31 81 18 q 90 52 81 43 q 111 61 99 61 q 132 52 124 61 q 140 31 140 43 q 132 9 140 18 q 111 0 124 0 m 176 0 q 156 9 164 0 q 147 31 147 18 q 156 52 147 43 q 176 61 164 61 q 199 52 190 61 q 207 31 207 43 q 199 9 207 18 q 176 0 190 0 z "},"‹":{"ha":189,"x_min":14,"x_max":165,"o":"m 142 164 q 129 171 135 164 l 17 333 l 14 339 q 15 349 14 349 q 16 351 15 349 q 17 353 17 353 q 18 356 17 354 l 129 515 q 143 524 135 524 q 158 517 151 524 q 165 500 165 510 q 138 454 165 496 q 60 343 88 381 q 138 232 88 306 q 165 186 165 190 q 158 171 165 178 q 142 164 150 164 z "},"›":{"ha":189,"x_min":24,"x_max":175,"o":"m 47 164 q 31 171 39 164 q 24 186 24 178 q 25 192 24 190 q 129 343 26 194 q 25 494 26 492 q 24 500 24 496 q 31 517 24 510 q 47 524 39 524 q 62 513 54 524 q 93 469 69 503 l 172 356 l 172 353 q 174 351 174 353 q 174 349 174 350 q 175 343 175 349 q 174 338 175 338 q 174 336 174 338 q 173 334 174 335 q 172 332 172 333 l 61 171 q 47 164 56 164 z "},"⁄":{"ha":382,"x_min":22,"x_max":358,"o":"m 46 7 q 30 13 38 7 q 22 28 22 19 q 24 35 22 32 q 72 135 29 46 q 171 340 115 225 q 269 545 226 456 q 319 646 313 635 q 336 657 325 657 q 351 651 344 657 q 358 638 358 646 q 356 628 358 633 l 61 17 q 46 7 56 7 z "},"₣":{"ha":325,"x_min":21,"x_max":300,"o":"m 115 0 q 85 25 89 0 q 79 75 81 44 l 42 75 q 26 81 32 75 q 21 96 21 88 q 26 110 21 104 q 42 117 32 117 l 76 117 q 65 411 65 263 q 79 606 65 538 q 167 681 93 681 q 283 653 210 681 q 300 632 300 644 q 294 617 300 624 q 276 610 288 610 l 272 610 l 188 625 q 151 233 156 492 l 213 233 q 231 214 231 233 q 226 199 231 206 q 213 192 221 192 l 150 192 l 149 117 l 181 117 q 199 97 199 117 q 194 82 199 89 q 181 75 189 75 l 147 75 q 146 25 147 46 q 135 6 144 13 q 115 0 126 0 z "},"₤":{"ha":271,"x_min":21,"x_max":249,"o":"m 219 0 l 42 0 q 26 6 32 0 q 21 21 21 13 q 26 35 21 29 q 42 42 32 42 q 70 69 63 42 q 78 143 78 97 q 71 279 78 179 l 42 279 q 22 293 22 279 q 42 306 22 306 l 69 306 q 67 371 67 340 l 42 371 q 22 385 22 371 q 42 397 22 397 l 65 397 l 65 436 q 74 550 65 497 q 108 634 83 603 q 179 665 132 665 q 231 636 213 665 q 249 564 249 607 q 233 515 249 515 q 224 525 226 515 q 176 618 208 618 q 149 587 156 618 q 142 506 142 556 q 146 397 142 457 l 179 397 q 197 385 197 397 q 192 375 197 379 q 179 371 188 371 l 146 371 q 149 306 149 339 l 179 306 q 197 293 197 306 q 192 283 197 288 q 179 279 188 279 l 149 279 l 149 261 q 96 42 149 93 l 219 42 q 238 22 238 42 q 233 7 238 14 q 219 0 228 0 z "},"€":{"ha":326,"x_min":21,"x_max":304,"o":"m 235 0 q 149 39 185 0 q 67 279 79 117 l 42 279 q 21 293 21 279 q 42 306 21 306 l 65 306 q 67 371 65 339 l 42 371 q 21 385 21 371 q 42 397 21 397 l 68 397 q 150 628 82 554 q 235 665 186 665 q 286 636 268 665 q 304 564 304 607 q 289 515 304 515 q 278 525 281 515 q 231 618 263 618 q 183 553 200 618 q 160 397 165 489 l 179 397 q 196 385 196 397 q 192 375 196 379 q 179 371 188 371 l 158 371 l 158 306 l 179 306 q 196 293 196 306 q 192 283 196 288 q 179 279 188 279 l 158 279 q 180 105 161 178 q 231 32 199 32 q 274 100 254 32 q 285 113 278 113 q 293 99 292 113 q 278 33 292 65 q 235 0 265 0 z "},"−":{"ha":194,"x_min":21,"x_max":172,"o":"m 156 322 l 42 322 q 26 328 32 322 q 21 343 21 335 q 26 358 21 351 q 42 364 32 364 l 156 364 q 172 344 172 364 q 168 329 172 336 q 156 322 164 322 z "},"≤":{"ha":258,"x_min":21,"x_max":238,"o":"m 164 210 q 151 215 157 210 l 44 331 q 39 346 39 336 q 45 360 39 353 q 65 381 51 367 q 95 414 78 396 q 128 449 113 432 q 151 472 144 465 q 164 479 157 479 q 179 472 172 479 q 186 457 186 465 q 182 446 186 451 l 88 344 l 182 244 q 186 233 186 239 q 179 217 186 225 q 164 210 172 210 m 219 149 l 42 149 q 26 155 32 149 q 21 169 21 161 q 26 184 21 178 q 42 190 32 190 l 219 190 q 238 171 238 190 q 233 156 238 163 q 219 149 228 149 z "},"≥":{"ha":258,"x_min":21,"x_max":238,"o":"m 96 210 q 81 217 88 210 q 74 233 74 225 q 78 244 74 239 q 172 344 121 293 q 78 446 108 411 q 74 457 74 451 q 81 472 74 465 q 94 479 88 479 q 107 474 101 479 l 215 360 q 221 346 221 353 q 215 331 221 336 q 107 215 129 238 q 96 210 101 210 m 219 149 l 42 149 q 26 155 32 149 q 21 169 21 161 q 26 184 21 178 q 42 190 32 190 l 219 190 q 238 171 238 190 q 233 156 238 163 q 219 149 228 149 z "}}}
